<svg xmlns="http://www.w3.org/2000/svg">
<defs>
<font id="UTMLoko" horiz-adv-x="1665" >
  <font-face 
    font-family="UTMLoko"
    font-weight="400"
    font-stretch="normal"
    units-per-em="2048"
    panose-1="2 4 6 3 5 5 6 2 2 4"
    ascent="1638"
    descent="-410"
    x-height="1155"
    cap-height="1569"
    bbox="-45 -789 4942 2495"
    underline-thickness="109"
    underline-position="-359"
    unicode-range="U+0020-2026"
  />
<missing-glyph horiz-adv-x="5040" 
d="M3351 2045h10q37 -10 37 -52q0 -12 -32 -57h-28q0 24 28 54l2 10q-5 13 -10 15h-9q-8 0 -10 -19h-30q6 49 42 49zM2019 2016l29 -31q0 -16 -40 -30h-19l-59 12l-11 -12l-28 25q11 29 43 29h11l42 -11h2q10 0 30 18zM468 1980h142v-60h-94v-75h89v-59h-89v-129l-5 -5h-49
v323zM1155 1980h43l6 -5v-78h30v-52h-30v-188l-6 -5h-49v193h-25v52h25v78zM1621 1980h42l4 -5v-94h3q23 24 54 24h2q58 0 83 -71l2 -39v-143h-52v115q0 80 -42 80h-7q-43 0 -43 -86v-109h-51v323zM2200 1980h49l5 -5v-222q10 -51 45 -51q44 7 44 59v214l5 5h49v-216
q0 -85 -66 -112q-15 -8 -35 -8q-47 0 -82 55q-14 24 -14 57v224zM2435 1980h159v-60h-56v-268h-53v268h-55v55zM2621 1980h71q7 -4 83 -251h2l80 251h73v-328h-54v242h-2l-74 -242h-44q-4 0 -58 182l-19 60h-3v-242h-55v328zM3760 1980h52v-328h-45l-5 5v11l3 2l-3 14
q-29 -40 -78 -40q-67 0 -100 91l-5 39v3q0 94 92 125l23 3q35 0 63 -32h3v107zM2057 1928h36l4 -6v-49h-45v-221h-48v23q-23 -31 -59 -31q-89 14 -89 97v156h51v-104q0 -79 26 -86l18 -5h6q26 0 39 36l3 26v133h53v25zM3476 1928v-55h-31v-221h-47v25h-2q-15 -33 -57 -33
q-68 0 -86 78l-3 29v146h52v-120q0 -50 19 -68l21 -7h9q42 0 42 69v126h27q4 0 4 28l3 3h49zM758 1905q68 0 103 -77q9 -18 12 -54q0 -88 -90 -127l-32 -3q-63 0 -101 73q-12 22 -12 52v10q0 94 101 126h19zM1011 1905h3q74 0 83 -101v-152h-51v119q0 76 -42 76h-5
q-44 0 -44 -76v-119h-52v245h46v-21q30 29 62 29zM1466 1905h7q72 0 105 -89h-60q-16 31 -42 31h-17q-53 -14 -53 -61l-3 -15q12 -69 61 -69h9q22 0 47 27h40l2 3h3l2 -3l2 3l3 -3l2 3l2 -7q-33 -81 -110 -81q-76 0 -110 94l-4 36v3q0 85 77 120q15 8 37 8zM3141 1905h2

<glyph glyph-name=".notdef" horiz-adv-x="5040" 
d="M3351 2045h10q37 -10 37 -52q0 -12 -32 -57h-28q0 24 28 54l2 10q-5 13 -10 15h-9q-8 0 -10 -19h-30q6 49 42 49zM2019 2016l29 -31q0 -16 -40 -30h-19l-59 12l-11 -12l-28 25q11 29 43 29h11l42 -11h2q10 0 30 18zM468 1980h142v-60h-94v-75h89v-59h-89v-129l-5 -5h-49
v323zM1155 1980h43l6 -5v-78h30v-52h-30v-188l-6 -5h-49v193h-25v52h25v78zM1621 1980h42l4 -5v-94h3q23 24 54 24h2q58 0 83 -71l2 -39v-143h-52v115q0 80 -42 80h-7q-43 0 -43 -86v-109h-51v323zM2200 1980h49l5 -5v-222q10 -51 45 -51q44 7 44 59v214l5 5h49v-216
q0 -85 -66 -112q-15 -8 -35 -8q-47 0 -82 55q-14 24 -14 57v224zM2435 1980h159v-60h-56v-268h-53v268h-55v55zM2621 1980h71q7 -4 83 -251h2l80 251h73v-328h-54v242h-2l-74 -242h-44q-4 0 -58 182l-19 60h-3v-242h-55v328zM3760 1980h52v-328h-45l-5 5v11l3 2l-3 14
q-29 -40 -78 -40q-67 0 -100 91l-5 39v3q0 94 92 125l23 3q35 0 63 -32h3v107zM2057 1928h36l4 -6v-49h-45v-221h-48v23q-23 -31 -59 -31q-89 14 -89 97v156h51v-104q0 -79 26 -86l18 -5h6q26 0 39 36l3 26v133h53v25zM3476 1928v-55h-31v-221h-47v25h-2q-15 -33 -57 -33
q-68 0 -86 78l-3 29v146h52v-120q0 -50 19 -68l21 -7h9q42 0 42 69v126h27q4 0 4 28l3 3h49zM758 1905q68 0 103 -77q9 -18 12 -54q0 -88 -90 -127l-32 -3q-63 0 -101 73q-12 22 -12 52v10q0 94 101 126h19zM1011 1905h3q74 0 83 -101v-152h-51v119q0 76 -42 76h-5
q-44 0 -44 -76v-119h-52v245h46v-21q30 29 62 29zM1466 1905h7q72 0 105 -89h-60q-16 31 -42 31h-17q-53 -14 -53 -61l-3 -15q12 -69 61 -69h9q22 0 47 27h40l2 3h3l2 -3l2 3l3 -3l2 3l2 -7q-33 -81 -110 -81q-76 0 -110 94l-4 36v3q0 85 77 120q15 8 37 8zM3141 1905h2
q49 0 70 -60v-14h-52q0 16 -16 16h-4q-14 0 -19 -13v-13q0 -9 68 -35q30 -19 30 -59q0 -58 -61 -80l-23 -3q-76 12 -76 83h54q0 -20 27 -25h4q19 0 24 23q0 22 -68 44q-34 27 -34 59q0 66 74 77zM4203 1905q55 0 77 -63q7 -18 7 -65v-125h-52v112q0 83 -40 83h-11
q-33 0 -40 -54v-141h-52v5h-2l2 2v238h47v-21q25 29 64 29zM4432 1905h5q40 0 69 -40v18l-3 3l3 11h47v-208q0 -97 -85 -132l-33 -4h-7q-70 0 -104 80h59q24 -22 45 -23h13q22 0 43 22q15 13 22 52h-3q-32 -40 -73 -40q-57 0 -96 70q-10 18 -14 63q0 88 87 125zM3851 1897
h53v-136q6 -59 40 -59h7q46 0 46 93v102h51v-245h-47l-3 10h3l-3 3v5l3 2v3h-4q0 -23 -57 -31h-3q-59 0 -84 75l-2 85v93zM690 1771q10 -69 63 -69h7q59 14 59 65v15q-13 65 -59 65h-5q-58 0 -65 -76zM3630 1774q13 -72 61 -72h5q58 0 66 75q0 49 -51 70h-22q-37 0 -56 -57z
M4374 1774q8 -72 65 -72h5q59 12 59 72q0 61 -59 73h-14q-56 -16 -56 -62v-11zM3928 1620h52v-57h-52v57zM1054 1402q43 -11 43 -49v-4q0 -17 -32 -60h-28q0 25 31 57v7q0 12 -7 15h-12q-10 -4 -10 -19h-28v6q0 32 33 44zM3349 1339q92 0 138 -99h-60q-37 42 -80 42
q-55 0 -87 -68q-10 -22 -10 -47q0 -78 81 -110l18 -1q36 0 75 39h61q-44 -97 -138 -97q-93 0 -141 112q-10 31 -10 62q0 97 90 152q29 15 63 15zM3664 1339q57 0 103 -47q46 -51 46 -115v-20q0 -89 -91 -146q-33 -13 -63 -13q-89 0 -138 101q-13 33 -13 60v18q0 98 98 151
q29 11 58 11zM2261 1337h2l47 -11h3q11 0 26 11l18 -36q-18 -19 -35 -19h-3l-54 10l-20 -7l-20 36q18 16 36 16zM716 1334h19q118 0 129 -26q25 -26 25 -62q-10 -57 -30 -57v-6q47 -23 47 -66v-18q0 -63 -69 -88l-54 -5h-67v328zM2550 1334h53v-217q6 -61 45 -61q29 0 44 39
l3 30v203l4 6h45l5 -6v-171q0 -118 -40 -133q-24 -26 -64 -26q-55 0 -91 76l-4 54v206zM2805 1334h59q4 0 122 -237h4v237h50l4 -6v-322h-58q-29 48 -125 238h-3v-238h-53v328zM3101 1334h54v-328h-54v328zM3859 1334h8q155 0 174 -40q23 -11 47 -75l4 -36v-11l3 -2
q0 -94 -82 -149q-35 -15 -99 -15h-55v328zM4141 1334h153v-60h-103v-75h101v-57h-101v-74l4 -5h99v-57h-157v322zM3563 1175v-10q0 -76 79 -108l19 -1q68 0 96 86l3 20v15q0 61 -60 94q-12 8 -39 11q-66 0 -96 -83zM770 1274v-67h9q54 0 54 28l3 14q-11 25 -29 25h-37z
M3912 1274v-206l2 -3v-2q104 0 122 76l2 15v29q0 34 -32 68q-25 23 -78 23h-16zM1041 1259h5q38 0 71 -40v32h49v-245h-49v32q-36 -40 -80 -40q-75 0 -101 97l-5 36q0 89 85 125zM1314 1259h3q74 0 83 -102v-151h-51v128q0 67 -42 67h-10q-34 0 -39 -62v-133h-52v245h47v-21
q28 29 61 29zM1543 1259h5q45 0 71 -40v32h47v-219q0 -95 -104 -126h-16q-74 0 -108 82h59q26 -25 44 -25h14q52 0 64 77q-33 -42 -76 -42q-60 0 -101 81l-7 44v16q0 79 85 117zM1912 1259h2q43 0 61 -37h2q32 37 69 37h4q57 0 79 -55q8 -25 8 -45v-153h-52v138q0 44 -23 55
l-12 2h-15q-32 0 -36 -65v-130h-52v136q0 59 -43 59h-8q-32 0 -36 -57v-138h-54v245h50v-21h2q6 24 54 29zM2282 1259q47 0 75 -42v34h47v-245h-47v32q-36 -40 -78 -40q-74 0 -102 92l-6 41q0 90 85 125zM985 1117q0 -48 61 -61h4q45 0 62 46l3 15v22q-12 62 -57 62h-14
q-41 0 -59 -57v-27zM1487 1128q0 -48 43 -68l18 -4h5q47 0 63 57v23q-11 65 -58 65h-12q-50 0 -59 -73zM2225 1131v-14q15 -61 57 -61h14q58 12 58 64v11q0 45 -37 65l-18 5h-10q-64 -8 -64 -70zM770 1150v-82q0 -5 7 -5q77 0 77 45q0 34 -47 42h-37zM2966 753l24 -28
l-51 -55q-18 12 -27 26zM1524 727l85 -54q0 -15 -21 -42l-87 54q18 41 23 42zM2850 693h38l55 -60h-54l-21 26l-23 -26h-54q54 60 59 60zM3422 693h40l56 -60h-54l-24 26h-1q0 -5 -19 -26h-54zM622 685h52q8 -4 47 -137l34 -110q9 8 34 100l48 147h54v-2l-112 -326h-44z
M1159 685h51v-54h-51v54zM1354 685h46l6 -5v-323h-52v328zM2317 685h45l4 -5v-78h31v-52h-31v-193h-53v193h-26v52h26v78zM2425 685h52v-98h2q23 23 54 23h3q57 0 81 -71l3 -38v-144h-52v115q0 81 -39 81h-10q-42 0 -42 -87v-109h-52v328zM2664 685h52v-54h-52v54zM3028 685
h44l6 -5v-78h29v-52h-29v-193h-54v193h-27v52h27v78zM3234 685h52v-328h-52v328zM3957 685h52v-328h-52v328zM4316 685h51v-54h-51v54zM1555 610h5q83 0 110 -102l3 -23v-11q0 -83 -85 -120l-35 -5q-76 0 -111 97l-4 32q0 97 93 130zM1811 610h4q53 0 78 -60q7 -25 7 -81
v-112h-54v146q-7 50 -37 50h-10q-38 0 -42 -57v-139h-54v245h49v-21q26 29 59 29zM2046 610h4q45 0 63 -39h3v31h49v-206q0 -102 -89 -135l-28 -3h-5q-73 0 -106 81h52l37 -20l15 -3h14q50 0 61 72q-33 -39 -73 -39q-62 0 -98 76q-11 23 -12 60q0 85 86 123zM2866 610h2
q82 0 111 -104l2 -25l-2 -27h-172q15 -45 45 -45l14 -3q29 0 49 22h57v-3q-35 -76 -108 -76q-77 0 -111 97l-1 28v8q0 49 32 89q34 39 82 39zM3429 610h5q41 0 70 -39h2v31h47v-245h-47v31h-2q-35 -39 -77 -39q-71 0 -101 89l-5 36v14q0 86 84 120zM3711 610h7
q88 0 107 -128l-2 -1v-15q0 -65 -66 -106q-21 -11 -46 -11q-34 0 -64 32v-99l-5 -5h-49v325h49v-28q31 36 69 36zM4151 610q44 0 75 -39v31h49v-245h-49v31q-35 -39 -77 -39q-92 0 -108 132q0 84 73 121q15 8 37 8zM922 602h50v-136q3 -60 42 -60h5q44 0 44 87v109h52v-245
h-47v24h-5q0 -23 -56 -32h-3q-55 0 -82 68q-4 35 -4 99v81zM1159 602h51v-245h-51v245zM2664 602h52v-245h-52v245zM4316 602h51v-245h-51v245zM1492 488v-16q13 -66 59 -66h4q59 0 66 76q-13 71 -59 71h-11q-59 -16 -59 -65zM1987 472q15 -66 59 -66h11q48 0 59 75v1
q-13 71 -59 71h-14q-39 0 -56 -57v-24zM2805 506h122v2q-16 45 -59 45h-7q-35 0 -56 -47zM3373 474q13 -68 61 -68h5q52 0 65 63v12q-10 72 -57 72h-16q-56 -14 -56 -63zM3642 478q12 -72 61 -72h3q50 0 65 60v22q0 43 -49 65h-22q-47 0 -58 -72v-3zM4095 472q10 -66 66 -66
q43 0 61 48l2 15v16q0 54 -52 68h-18q-42 0 -59 -60v-21zM3416 321h51v-52h-51v52zM4137 321h51v-52h-51v52zM2733 133h4q35 0 43 -50v-2q0 -16 -24 -41l-10 -17h-28q0 25 28 56l3 2v2q-3 19 -9 19h-10q-8 0 -9 -19h-30q6 50 42 50zM1546 116l52 -60l-26 -19l-52 52zM352 79
h4q75 -48 85 -60l-20 -37q-88 49 -88 58zM3490 79l86 -58l-18 -39q-10 0 -91 55q15 36 23 42zM4578 76l19 -42l-91 -52l-20 39l92 58v-3zM1204 53h51v-19l5 -5h14v-36h-14l-5 -5v-279h-46v31q-34 -40 -81 -40q-72 0 -102 105l-3 26q0 102 101 131h14q33 0 66 -33v59l-6 5
h-43v36h49v24zM1480 45h40l56 -61h-53l-23 27l-23 -27h-53zM2641 45h33q12 0 63 -61h-54l-23 27q-19 -21 -19 -27h-58v4zM49 37h160v-60h-56v-268h-50l-4 5v245l2 3v2l-2 2l2 3l-2 2l2 3l-2 3h-54v54zM699 37h47v-73l2 -2l-2 -3v-3l2 -2l-2 -3v-3l2 -2v-2l-2 -3l2 -3h3
q17 24 51 24h3q53 0 77 -58q7 -17 7 -42v-153h-52v127q0 68 -40 68h-8q-43 0 -43 -86v-109h-52v322zM1297 37h47l5 -6v-49h-52v55zM1987 37h52v-198l70 115h62l-78 -118l90 -125v-2h-70q-10 22 -74 115v-115h-52v328zM2271 37v-99q24 24 53 24q57 0 80 -56q10 -19 10 -77
v-120h-54v133q0 62 -41 62h-11q-31 0 -37 -55v-140h-53v314l-1 3v3l1 2l-1 3l1 3h53zM2458 37h51v-55h-51v55zM3148 37h51v-108q27 33 68 33h3q75 0 105 -94l5 -37q0 -75 -64 -120q-30 -11 -49 -11q-41 0 -72 40v-31h-47v328zM4275 37h52v-99h2q23 24 54 24h3q60 0 82 -74
l2 -41v-138h-52v111q0 82 -32 82l-10 2h-12q-37 0 -37 -80v-115h-52v328zM329 -38h3v-58h-5q-42 0 -42 -57v-138h-53v245h47v-21q18 29 50 29zM564 -38q71 0 86 -87v-166h-51v136q-6 59 -41 59h-6q-45 0 -45 -84v-111h-52v245h50v-21q25 29 59 29zM1504 -38q72 0 105 -94
l5 -39q-2 -24 -7 -24h-169q17 -47 62 -47q24 0 48 21h57q-33 -79 -108 -79q-82 0 -113 105v37q0 81 89 117zM2657 -38h5q77 0 107 -97l3 -26v-21l-3 -13h-170q18 -47 53 -47h12q21 0 42 21h59q-34 -79 -105 -79q-84 0 -115 102l-2 29q0 93 91 128zM2915 -38h4q54 0 78 -60
q7 -25 7 -82v-111h-54v138q0 48 -35 57h-11q-38 0 -43 -57v-138h-54v245h50v-21q25 29 58 29zM3508 -38h6q40 0 70 -40h2v32h47v-245h-47v31h-2q-34 -40 -78 -40q-71 0 -101 90l-4 37v12q0 82 77 117q11 6 30 6zM3781 -38h4q62 0 82 -78l3 -84v-91h-54v138q0 48 -38 57h-9
q-38 0 -42 -52v-143h-54v245h49v-21q26 29 59 29zM4133 -38h1q74 0 104 -93l4 -40q0 -88 -84 -126l-25 -3q-41 0 -68 34v-106h-52v326h47v-29q30 37 73 37zM4714 -38h5q34 0 63 -37q27 37 69 37h6q56 0 79 -66l6 -51v-136h-52v122q0 73 -39 73h-7q-35 0 -41 -50v-140l-5 -5
h-48v140q0 42 -31 55h-17q-40 0 -40 -77v-118h-51v245h47v-21q22 29 56 29zM359 -46h49l5 -6v-234l-5 -5h-49v245zM1297 -46h52v-245h-52v245zM1649 -46h52v-136q4 -60 43 -60h4q44 0 44 81v115h52v-245h-47v24h-5q-12 -33 -59 -33q-52 0 -79 63q-5 12 -5 34v157zM2458 -46
h51v-245h-51v245zM4515 -46h51v-245h-51v245zM1077 -169q0 -53 51 -73h12q54 0 66 66v10q0 53 -54 70h-17q-38 0 -58 -57v-16zM1438 -143h122q-18 47 -53 47h-7q-43 0 -62 -44v-3zM2599 -143h122q-21 47 -54 47h-7q-46 0 -61 -47zM3196 -158v-11q10 -73 61 -73h5q64 8 64 71
v5q0 45 -38 65l-18 5h-14q-60 -14 -60 -62zM3452 -173q14 -69 62 -69h11q41 0 59 60v13q-8 73 -56 73h-17q-47 0 -59 -73v-4zM4062 -158v-22q0 -47 59 -62h9q50 0 61 76q-13 70 -58 70h-15q-56 -17 -56 -62z" />
    <glyph glyph-name=".null" horiz-adv-x="0" 
 />
    <glyph glyph-name="nonmarkingreturn" horiz-adv-x="571" 
 />
    <glyph glyph-name="space" unicode=" " horiz-adv-x="514" 
 />
    <glyph glyph-name="exclam" unicode="!" horiz-adv-x="671" 
d="M153 1618h487l-65 -1018h-414l-51 578h-70zM628 274q0 -110 -68.5 -191t-173.5 -81q-110 0 -191 67.5t-81 174.5q0 106 69.5 188t171.5 82q111 0 192 -67.5t81 -172.5z" />
    <glyph glyph-name="quotedbl" unicode="&#x22;" horiz-adv-x="671" 
d="M217 907h-62l-59 330q-13 68 -21 122t-8 87q0 59 25 98q32 43 96 43q33 0 56.5 -10t42 -42t18.5 -85q0 -41 -9.5 -93t-19.5 -108zM528 907h-60l-57 330q-10 57 -21.5 115.5t-11.5 89.5q0 61 31 103t92 42q68 0 92.5 -43t24.5 -92q0 -31 -12.5 -96.5t-18.5 -106.5z" />
    <glyph glyph-name="numbersign" unicode="#" horiz-adv-x="1538" 
d="M695 1415h230l-150 -422h238l153 422h228l-150 -422h283l-70 -190h-280l-93 -254h285l-69 -193h-285l-150 -424h-227l150 424h-242l-150 -424h-229l149 424h-276l68 193h278l90 254h-278l69 190h279zM615 549h240l90 254h-239z" />
    <glyph glyph-name="dollar" unicode="$" horiz-adv-x="1241" 
d="M860 1661v-82q88 -14 163.5 -38.5t159.5 -61.5l-106 -424q-70 39 -179.5 75.5t-191.5 36.5q-45 0 -72.5 -11t-44 -37.5t-6.5 -47.5q12 -24 52 -36.5t112 -30.5l39 -13q233 -69 341.5 -180t108.5 -309q0 -176 -93 -297t-290 -193v-125h-430v113q-108 12 -177.5 34.5
t-153.5 69.5l123 463q38 -22 65 -38.5t117 -57.5t219 -41q37 0 61.5 9.5t40 33t11.5 41.5q-9 41 -47.5 55.5t-124.5 40.5l-37 11q-224 69 -339.5 178.5t-115.5 306.5q0 164 113.5 294t253.5 165v96h428z" />
    <glyph glyph-name="percent" unicode="%" horiz-adv-x="1449" 
d="M1077 1305h270l-922 -1307h-272zM391 1350q133 0 229 -96.5t96 -231.5q0 -133 -94 -229.5t-231 -96.5q-133 0 -229.5 96.5t-96.5 229.5q0 135 96.5 231.5t229.5 96.5zM1138 635q133 0 229.5 -96.5t96.5 -231.5q0 -133 -96.5 -229t-229.5 -96q-135 0 -230 95t-95 230
q0 133 95 230.5t230 97.5zM391 1116q-37 0 -66 -26.5t-29 -67.5q0 -39 28 -64.5t67 -25.5t65.5 26.5t26.5 63.5q0 41 -24.5 67.5t-67.5 26.5zM1138 399q-41 0 -67.5 -26.5t-26.5 -65.5t26.5 -65.5t67.5 -26.5q39 0 65.5 26.5t26.5 65.5t-26.5 65.5t-65.5 26.5z" />
    <glyph glyph-name="ampersand" unicode="&#x26;" horiz-adv-x="1357" 
d="M985 1495l-191 -350q-74 61 -149 61q-13 0 -36.5 -5t-42 -20.5t-24.5 -45.5q-6 -25 4.5 -51.5t41 -42t63 -18.5t164.5 -3v51l438 119v-162h162l-109 -432h-53v-596h-623q-172 0 -290.5 35t-177 126t-78 160.5t-19.5 147.5q0 123 55.5 220t180.5 151q-99 63 -142 170.5
t-43 216.5q0 108 69.5 200.5t171 134.5t218.5 42q106 0 216 -29t194 -80zM628 631q-37 -8 -59.5 -34t-22.5 -50q-4 -25 2 -53.5t27.5 -51t68 -31t169.5 -8.5v238q-58 0 -101 -1t-84 -9z" />
    <glyph glyph-name="quotesingle" unicode="'" horiz-adv-x="645" 
d="M174 946l59 166q-84 35 -126 87t-42 128q0 62 23.5 121t84 98t148.5 39q57 0 113.5 -26.5t94.5 -86t38 -126.5q0 -99 -36 -182t-132 -150q-60 -37 -113 -52.5t-112 -15.5z" />
    <glyph glyph-name="parenleft" unicode="(" horiz-adv-x="776" 
d="M255 -135q-98 166 -144 425t-46 519q0 209 58.5 438.5t144.5 376.5h497q-82 -141 -142 -377.5t-60 -437.5q0 -258 46 -516t144 -428h-498z" />
    <glyph glyph-name="parenright" unicode=")" horiz-adv-x="776" 
d="M40 -135q99 166 145 425t46 519q0 201 -59.5 435.5t-143.5 379.5h498q82 -141 142 -377.5t60 -437.5q0 -268 -45 -520t-145 -424h-498z" />
    <glyph glyph-name="asterisk" unicode="*" horiz-adv-x="907" 
d="M256 1198q-58 0 -88.5 5t-53 22.5t-34 45t-7.5 60.5q11 74 48.5 90.5t62.5 16.5q80 0 122 -77t71.5 -107.5t41.5 -22.5q9 8 9 18q0 15 -8.5 37.5t-35 77.5t-36.5 78.5t-4 56.5q4 23 22.5 46.5t43 30.5t46.5 7q41 0 74 -22q43 -37 43 -86q0 -29 -9 -56.5t-32 -66.5
q-16 -35 -31.5 -78t-3.5 -47q11 -4 28 15.5t46 61.5t54.5 77.5t51 46t46.5 10.5q16 0 36.5 -6.5t48 -34t27.5 -80.5q0 -17 -4 -48.5t-51 -53t-127 -21.5q-41 0 -84 -9t-39 -24q2 -14 25.5 -21t95.5 -7q41 -5 84 -7q41 -6 60.5 -24.5t27.5 -35.5t8 -40q0 -14 -5 -39.5
t-22.5 -49.5t-40 -33t-42.5 -9q-41 0 -76 30.5t-60.5 72.5t-57.5 75t-42 23q-10 -9 -1 -33.5t35.5 -78.5t38 -78.5t11.5 -51.5q0 -16 -3 -32.5t-17.5 -37t-43 -30t-53.5 -9.5q-22 0 -40.5 7.5t-45 29t-26.5 72.5q0 49 26.5 100.5t39.5 84t13 51.5q0 10 -6 14
q-10 4 -30.5 -15.5t-63.5 -76.5q-27 -43 -45 -71t-43 -38t-43 -10q-37 0 -74 25q-55 51 -49 102q0 55 49 86t140 31q47 0 84.5 8t39.5 22q0 19 -22.5 25t-99.5 6z" />
    <glyph glyph-name="plus" unicode="+" horiz-adv-x="1329" 
d="M538 1272h336v-471h473v-332h-473v-469h-336v469h-473v332h473v471z" />
    <glyph glyph-name="comma" unicode="," horiz-adv-x="573" 
d="M174 -160l59 164q-84 27 -126 81t-42 134q0 55 25.5 118.5t83 102.5t143.5 39q55 0 112.5 -26.5t97.5 -87t40 -127.5q0 -101 -36 -182t-113 -133t-131 -67.5t-113 -15.5z" />
    <glyph glyph-name="hyphen" unicode="-" horiz-adv-x="849" 
d="M735 848v-379h-604v379h604z" />
    <glyph glyph-name="hyphen" unicode="&#x2010;" horiz-adv-x="849" 
d="M735 848v-379h-604v379h604z" />
    <glyph glyph-name="period" unicode="." horiz-adv-x="567" 
d="M565 238q0 -103 -76 -174.5t-180 -71.5q-103 0 -173.5 74.5t-70.5 183.5q0 100 75 171t179 71q102 0 174 -76t72 -178z" />
    <glyph glyph-name="slash" unicode="/" horiz-adv-x="1028" 
d="M820 1556h213l-780 -1572h-213z" />
    <glyph glyph-name="zero" unicode="0" horiz-adv-x="1339" 
d="M708 -27q-299 0 -471 221.5t-172 596.5q0 374 172 593.5t471 219.5q322 0 481.5 -214t159.5 -599q0 -377 -170 -597.5t-471 -220.5zM856 797q0 151 -36 243.5t-114 92.5q-84 0 -118 -90.5t-34 -245.5q0 -162 33 -252t119 -90q84 0 117 90t33 252z" />
    <glyph glyph-name="one" unicode="1" horiz-adv-x="1339" 
d="M475 1569h475v-1569h-489v1083h-117z" />
    <glyph glyph-name="two" unicode="2" horiz-adv-x="1339" 
d="M972 500h336l-135 -500h-1022l528 846q95 158 95 213q0 10 -11.5 50t-74.5 40q-31 0 -51.5 -15.5t-31 -38t-10.5 -42.5q0 -37 19 -66l-416 -147q-41 102 -41 229q0 84 19.5 161t84 170t183.5 148.5t250 55.5h37q24 -5 97 -12t191.5 -69.5t164.5 -154.5t58.5 -147.5
t12.5 -102.5q0 -84 -34 -189.5t-142 -275.5z" />
    <glyph glyph-name="three" unicode="3" horiz-adv-x="1339" 
d="M1020 838q121 -78 173 -175.5t52 -213.5q0 -103 -53 -209.5t-141.5 -164t-170 -76.5t-182.5 -19q-131 0 -268 31.5t-252 80.5l129 445q74 -41 165 -71t152 -30q23 0 48.5 7.5t38 17.5t20.5 37q6 20 -2 36.5t-28.5 35t-70 25.5t-94.5 7h-26h-211l106 387h181q63 0 86.5 33
t15.5 65q-6 31 -30.5 45.5t-52.5 17.5t-43 4t-26 1q-110 0 -256 -53l136 477q38 10 95.5 16.5t119.5 6.5q116 0 215.5 -19.5t179.5 -69t127 -133.5t47 -176q0 -94 -43 -191.5t-137 -174.5z" />
    <glyph glyph-name="four" unicode="4" horiz-adv-x="1339" 
d="M548 1569h604l-555 -887h129v184l490 127v-311h178l-127 -432h-51v-250h-490v250h-645v506z" />
    <glyph glyph-name="five" unicode="5" horiz-adv-x="1339" 
d="M272 1569h921l-118 -459h-347v-82q142 0 273 -50t187.5 -143.5t73.5 -161t17 -136.5q0 -125 -56 -252t-170 -207t-212 -91.5t-154 -11.5q-143 0 -284.5 47.5t-247.5 127.5l256 397q131 -127 248 -127q16 0 61 8t64 76q10 20 10 45q0 24 -19.5 54t-62.5 38t-160 8h-278z
" />
    <glyph glyph-name="six" unicode="6" horiz-adv-x="1339" 
d="M1251 866q35 -61 51.5 -134t16.5 -150q0 -166 -78 -309.5t-221.5 -220.5t-290.5 -77q-158 0 -308.5 69t-218 179.5t-88 188t-20.5 153.5q0 101 27.5 196t76.5 185l357 623h563l-254 -441q121 -18 222.5 -80.5t164.5 -181.5zM712 715q-55 0 -98 -37t-43 -92q0 -56 38 -98
t91 -42q60 0 101 37t41 92q0 56 -38 98t-92 42z" />
    <glyph glyph-name="seven" unicode="7" horiz-adv-x="1339" 
d="M414 1569h848l-494 -1569h-512l340 1100h-322z" />
    <glyph glyph-name="eight" unicode="8" horiz-adv-x="1339" 
d="M1110 868q86 -69 129 -165.5t43 -196.5q0 -35 -15.5 -119t-93.5 -190.5t-197.5 -165t-261.5 -58.5q-76 0 -154.5 18.5t-169.5 72t-166 167t-75 228.5q0 108 44 221t138 178q-106 131 -106 291q0 76 38 176t131 173t176 88.5t126 15.5q102 0 202.5 -35t171 -104.5
t101.5 -151.5t31 -168q0 -41 -9.5 -89t-26 -86t-56.5 -100zM712 1227q-51 0 -82.5 -32t-31.5 -83q0 -47 32.5 -82t81.5 -35q51 0 84 33t33 84q0 49 -33 82t-84 33zM714 651q-51 0 -87 -33.5t-36 -82.5q0 -52 33 -88.5t84 -36.5t88 32.5t37 83.5q0 54 -34 89.5t-85 35.5z" />
    <glyph glyph-name="nine" unicode="9" horiz-adv-x="1339" 
d="M158 711q-31 59 -48.5 133t-17.5 147q0 166 77 311.5t220 222.5t291 77q162 0 310.5 -67t218 -178.5t90 -189t20.5 -155.5q0 -97 -30 -194t-79 -185l-358 -635h-563l258 451q-121 18 -222.5 80.5t-166.5 181.5zM698 860q58 0 100 38t42 93q0 56 -37 99t-93 43
q-55 0 -98 -37t-43 -92q0 -58 37 -101t92 -43z" />
    <glyph glyph-name="colon" unicode=":" horiz-adv-x="598" 
d="M579 236q0 -107 -81 -175.5t-193 -68.5q-103 0 -171.5 83t-68.5 193q0 103 81 171.5t189 68.5q105 0 174.5 -82t69.5 -190zM579 989q0 -104 -81 -172.5t-193 -68.5q-103 0 -171.5 80.5t-68.5 191.5q0 104 81 173t189 69q105 0 174.5 -82t69.5 -191z" />
    <glyph glyph-name="semicolon" unicode=";" horiz-adv-x="598" 
d="M579 989q0 -104 -81 -172.5t-193 -68.5q-103 0 -171.5 80.5t-68.5 191.5q0 104 81 173t189 69q105 0 174.5 -82t69.5 -191zM192 -141l59 164q-168 51 -168 217q0 55 26 116.5t84 102.5t142 41q58 0 114 -28t96 -88t40 -128q0 -98 -35.5 -180t-112.5 -134.5t-130.5 -67.5
t-114.5 -15z" />
    <glyph glyph-name="less" unicode="&#x3c;" horiz-adv-x="1038" 
d="M65 752l954 358v-256l-612 -217l612 -221v-254l-954 354v236z" />
    <glyph glyph-name="equal" unicode="=" horiz-adv-x="1587" 
d="M1599 1073v-330h-1534v330h1534zM1599 524v-329h-1534v329h1534z" />
    <glyph glyph-name="greater" unicode="&#x3e;" horiz-adv-x="1026" 
d="M1019 516l-954 -354v254l614 221l-614 217v256l954 -358v-236z" />
    <glyph glyph-name="question" unicode="?" horiz-adv-x="1087" 
d="M351 600v344q47 -14 97 -14q34 0 69 8t80 42t35 95q-6 33 -34 63.5t-55.5 35t-47.5 4.5q-47 0 -88 -16.5t-107 -63.5l-260 338q115 96 244 142t258 46q28 0 58 -3t75 -11q121 -29 222 -113t134 -192.5t33 -190.5q0 -100 -28.5 -189t-97.5 -170t-186.5 -126t-244.5 -45
q-78 0 -156 16zM788 225q0 -100 -84 -167.5t-193 -67.5q-102 8 -168.5 89t-66.5 189q0 97 76.5 165.5t174.5 68.5h25q100 -10 168 -82t68 -170v-25z" />
    <glyph glyph-name="at" unicode="@" horiz-adv-x="1908" 
d="M1175 348q-68 -106 -153 -156.5t-175 -50.5q-73 0 -154 37t-117 102.5t-46 118t-10 109.5q0 158 116.5 367.5t360.5 209.5h28q66 0 126.5 -21.5t85 -56t44.5 -79.5l39 123h273l-133 -463q-21 -66 -38.5 -123t-17.5 -100q0 -37 23.5 -59.5t62.5 -22.5l35 4
q68 12 132.5 85.5t94 151.5t43 145.5t13.5 139.5q0 92 -21.5 170t-100.5 187.5t-262 166t-362 56.5q-196 0 -369 -104.5t-261.5 -263.5t-114 -263.5t-25.5 -216.5q0 -107 20.5 -197t90.5 -221t233.5 -227.5t337.5 -96.5q205 0 373 42t352 151l56 -84q-164 -113 -365 -176.5
t-405 -63.5q-254 0 -460 103.5t-332 294t-126 409.5q0 244 85 461t263 344t347 175t343 48q234 0 406 -75.5t277.5 -216t119.5 -240t15.5 -116.5t1.5 -44q0 -156 -55.5 -312.5t-145.5 -227t-162 -96t-147 -25.5q-21 0 -43.5 1t-98.5 29.5t-98 167.5zM808 432q0 -47 11.5 -82
t39 -51t62.5 -16q55 0 110.5 51t117 209.5t61.5 240.5q2 11 2 31q0 33 -11.5 63.5t-38 51t-67.5 20.5q-33 0 -91 -23.5t-127 -214t-69 -280.5z" />
    <glyph glyph-name="A" unicode="A" horiz-adv-x="1546" 
d="M1162 1569l445 -1569l-535 -2l-49 199h-410l-53 -197h-520l305 1104h-115l125 465h807zM716 643h203l-97 426z" />
    <glyph glyph-name="B" unicode="B" horiz-adv-x="1368" 
d="M171 1569h662q151 0 279 -47t174 -147.5t46 -192.5q0 -82 -22.5 -151.5t-61.5 -109.5t-52 -52.5t-64 -53.5q92 -45 154.5 -126t72.5 -149.5t10 -115.5q0 -76 -22.5 -149.5t-84 -142.5t-181 -100.5t-273.5 -31.5h-653v1083h-115zM646 958h129q45 0 70.5 26t25.5 60
q0 37 -24.5 64t-69.5 27h-131v-177zM646 440h129q58 0 89.5 30t31.5 73t-30.5 73.5t-86.5 30.5h-133v-207z" />
    <glyph glyph-name="C" unicode="C" horiz-adv-x="1366" 
d="M1021 1626l398 -145l-240 -512q-82 78 -150.5 110.5t-148.5 32.5q-76 0 -146.5 -34t-106.5 -90t-47 -100t-11 -91q0 -66 24.5 -131.5t93 -114.5t122 -58.5t69.5 -9.5q78 0 151.5 38t149.5 124l223 -463q-125 -106 -262 -154t-274 -48q-23 0 -50.5 2t-135 12t-288 142
t-254 302t-73.5 340q0 133 38 255t145.5 261.5t280.5 216t347 76.5q39 0 59.5 -2t63.5 -8z" />
    <glyph glyph-name="D" unicode="D" horiz-adv-x="1406" 
d="M171 1569h457q217 0 397 -81t262 -219.5t107.5 -242.5t25.5 -221q0 -260 -114.5 -456.5t-311 -272.5t-448.5 -76h-391v1083h-115zM646 500q113 0 182.5 48t97 117.5t27.5 143.5q0 96 -39.5 159.5t-110.5 91t-157 27.5v-587z" />
    <glyph glyph-name="E" unicode="E" horiz-adv-x="1218" 
d="M796 1624h446l-139 -549h-457v-92h555l-96 -397h-459v-105h557l-123 -481h-925v1083h-115l131 486h598z" />
    <glyph glyph-name="F" unicode="F" horiz-adv-x="1212" 
d="M790 1624h454l-145 -549h-453v-104h506l-115 -445h-391v-528h-491v1085h-115l131 486h592z" />
    <glyph glyph-name="G" unicode="G" horiz-adv-x="1652" 
d="M1482 1376l-346 -370q-57 38 -127 62t-139 24q-90 0 -163 -42t-119 -119t-46 -153v-26q0 -78 37 -146.5t119 -118.5q78 -43 168 -43q80 0 148.5 33t103.5 92h-258l102 410h723q0 -277 -61.5 -485.5t-220 -325.5t-280.5 -155t-251 -38q-143 0 -302 59.5t-296 207t-172 294
t-35 248.5q0 150 50 293.5t165 264t273.5 178t328.5 57.5q96 0 191 -16l47 41z" />
    <glyph glyph-name="H" unicode="H" horiz-adv-x="1523" 
d="M646 555v-555h-491v1083h-115l131 486h475v-525h336v525h485v-1569h-485v555h-336z" />
    <glyph glyph-name="I" unicode="I" horiz-adv-x="741" 
d="M171 1569h475v-1569h-491v1083h-115z" />
    <glyph glyph-name="J" unicode="J" horiz-adv-x="974" 
d="M176 1569h716v-985q0 -197 -39.5 -332t-173 -209t-294.5 -74q-99 0 -190 22.5t-177 71.5l137 451q82 -61 142 -61q22 0 52.5 15t41 67.5t10.5 173.5v366h-360z" />
    <glyph glyph-name="K" unicode="K" horiz-adv-x="1406" 
d="M646 547v-547h-491v1083h-115l131 486h475v-529l271 529h536l-397 -772l434 -797h-545z" />
    <glyph glyph-name="L" unicode="L" horiz-adv-x="942" 
d="M646 477h330l-143 -479l-678 2v1083h-115l131 486h475v-1092z" />
    <glyph glyph-name="M" unicode="M" horiz-adv-x="1742" 
d="M646 0h-491v1083h-115l131 486h475l268 -326l277 326h485v-1569h-483v862l-272 -350l-275 344v-856z" />
    <glyph glyph-name="N" unicode="N" horiz-adv-x="1556" 
d="M646 0h-491v1083h-115l131 486h494l350 -576v576h481v-1569h-420l-430 711v-711z" />
    <glyph glyph-name="O" unicode="O" 
d="M868 1585q334 0 569.5 -235.5t235.5 -567.5q0 -331 -235.5 -566.5t-569.5 -235.5q-332 0 -567.5 235.5t-235.5 566.5q0 332 235.5 567.5t567.5 235.5zM868 1090q-127 0 -217 -90.5t-90 -217.5t90 -217t217 -90t218 89t91 218q0 127 -90 217.5t-219 90.5z" />
    <glyph glyph-name="P" unicode="P" horiz-adv-x="1339" 
d="M171 1569h426q262 0 387 -37t207 -134.5t114.5 -207t32.5 -223.5q0 -103 -55 -291.5t-235.5 -254t-252 -76.5t-149.5 -11v-334h-491v1083h-115zM646 795q62 0 111 23.5t64.5 55t15.5 68.5q0 21 -4.5 39t-15.5 47t-56 48.5t-115 19.5v-301z" />
    <glyph glyph-name="Q" unicode="Q" 
d="M1544 348l98 -100l-258 -250l-96 98q-84 -53 -194.5 -84.5t-225.5 -31.5q-332 0 -567.5 235.5t-235.5 566.5q0 332 235.5 567.5t567.5 235.5q334 0 569.5 -235.5t235.5 -567.5q0 -116 -34 -228t-95 -206zM913 479l-78 76l256 252l80 -82l6 57q0 127 -90 217.5t-219 90.5
q-127 0 -217 -90.5t-90 -217.5t90 -217t217 -90q31 0 45 4z" />
    <glyph glyph-name="R" unicode="R" horiz-adv-x="1415" 
d="M646 0h-491v1083h-115l131 486l545 -2q160 0 308.5 -39t235.5 -148.5t115.5 -205t28.5 -199.5q0 -74 -15.5 -157t-76 -173t-178.5 -168l290 -477h-571l-207 410v-410zM646 829h144q57 0 85.5 19.5t38 44.5t9.5 57q0 47 -23.5 83t-72 45t-181.5 9v-258z" />
    <glyph glyph-name="S" unicode="S" horiz-adv-x="1196" 
d="M780 1636l430 -86l-141 -497q-66 32 -199 78.5t-213 46.5q-37 0 -59 -13q-27 -20 -27 -53q0 -6 7 -24.5t53 -38t94 -33.5l45 -10q186 -68 282.5 -135.5t130 -179t33.5 -187.5q0 -172 -99.5 -303t-235.5 -177.5t-273 -46.5q-109 0 -261.5 43t-287.5 109l131 467
q113 -59 230.5 -108.5t195.5 -49.5q35 0 59.5 16.5t24.5 61.5q0 39 -40 60.5t-114 44.5l-53 18q-172 55 -279.5 143t-128 184.5t-20.5 145.5q0 98 34 190.5t107.5 163t177 100t220.5 29.5q41 0 86 -4t78 -8z" />
    <glyph glyph-name="T" unicode="T" horiz-adv-x="1087" 
d="M738 1624h443l-152 -555h-235v-1069h-492v1069h-262l135 500h537z" />
    <glyph glyph-name="U" unicode="U" horiz-adv-x="1492" 
d="M646 735q0 -26 -1 -47.5t-1 -38.5q0 -71 14.5 -117.5t51.5 -68t78 -21.5q36 0 77 19.5t54.5 81t13.5 190.5v836h489v-889q0 -209 -55 -371t-176 -232.5t-212 -91t-189 -20.5q-211 0 -367 90t-212 258t-56 367v403h-115l131 486h475v-834z" />
    <glyph glyph-name="V" unicode="V" horiz-adv-x="1501" 
d="M40 1569h539l223 -762l221 762h541l-537 -1569h-452z" />
    <glyph glyph-name="W" unicode="W" horiz-adv-x="1964" 
d="M556 1569l119 -699l180 699h365l190 -709l111 709h518l-367 -1569h-483l-154 655l-147 -655h-481l-367 1569h516z" />
    <glyph glyph-name="X" unicode="X" horiz-adv-x="1470" 
d="M618 1569l165 -355l166 355h547l-422 -750l447 -819h-529l-213 416l-211 -416h-528l444 819l-411 750h545z" />
    <glyph glyph-name="Y" unicode="Y" horiz-adv-x="1359" 
d="M40 1569h537l151 -332l152 332h536l-440 -856v-713h-494v713z" />
    <glyph glyph-name="Z" unicode="Z" horiz-adv-x="1099" 
d="M198 1569h921l-387 -1077h373l-123 -492h-942l401 1087h-360z" />
    <glyph glyph-name="bracketleft" unicode="[" horiz-adv-x="681" 
d="M413 1473v-1625h215v-98h-473v1819h473v-96h-215z" />
    <glyph glyph-name="backslash" unicode="\" horiz-adv-x="1275" 
d="M1033 -16h-213l-780 1572h211z" />
    <glyph glyph-name="bracketright" unicode="]" horiz-adv-x="681" 
d="M40 1473v96h471v-1819h-471v98h215v1625h-215z" />
    <glyph glyph-name="asciicircum" unicode="^" horiz-adv-x="829" 
d="M253 1554h313l215 -335h-301l-69 127l-70 -127h-301z" />
    <glyph glyph-name="underscore" unicode="_" horiz-adv-x="1101" 
d="M1131 -391h-1176v137h1176v-137z" />
    <glyph glyph-name="grave" unicode="`" horiz-adv-x="659" 
d="M40 1561h399l133 -342h-325z" />
    <glyph glyph-name="a" unicode="a" horiz-adv-x="1402" 
d="M880 1135v20h449v-706h106l-118 -449h-441v231l-84 -231q-47 -6 -94 -6q-106 0 -205.5 33.5t-198 117.5t-149.5 204t-51 251q0 51 12.5 138t90 204t207.5 176.5t265 59.5q119 0 211 -43zM721 758q-64 0 -109 -45t-45 -109q0 -65 45 -110t109 -45h155v155q0 64 -45 109
t-110 45z" />
    <glyph glyph-name="b" unicode="b" horiz-adv-x="1363" 
d="M606 20v-20h-449v1182h-94l104 442h445v-700l82 231q47 6 96 6q107 0 205 -34.5t197.5 -118.5t149.5 -203t50 -248v-63q-6 -27 -15 -94.5t-87 -186.5t-175.5 -162t-167 -58.5t-126.5 -15.5q-119 0 -215 43zM765 397q66 0 110 44t44 110q0 65 -45 110.5t-109 45.5h-153
v-156q0 -66 44 -110t109 -44z" />
    <glyph glyph-name="c" unicode="c" horiz-adv-x="921" 
d="M905 8q-41 -14 -99.5 -25.5t-109.5 -11.5q-250 0 -427 177.5t-177 426.5q0 250 177 427.5t427 177.5q115 0 225 -45l-110 -430q-51 43 -115 43q-72 0 -122 -50.5t-50 -122.5q0 -73 49 -122.5t123 -49.5q35 0 65.5 12.5t51.5 33.5z" />
    <glyph glyph-name="d" unicode="d" horiz-adv-x="1400" 
d="M1329 449h106l-118 -449h-441v231l-84 -231h-86q-114 0 -213.5 30.5t-198 114.5t-149.5 204t-51 251q0 51 13.5 139t88 204t166.5 157t167 54t145 13q131 0 206 -32v47h-98l105 442h442v-1175zM721 758q-64 0 -109 -45t-45 -109q0 -65 45 -110t109 -45h155v155
q0 64 -45 109t-110 45z" />
    <glyph glyph-name="e" unicode="e" horiz-adv-x="1228" 
d="M1264 477h-691q148 -110 359 -110q133 0 278 47l-94 -387q-61 -17 -146 -28t-167 -11q-164 0 -313.5 47t-238.5 139t-127 199.5t-38 220.5q0 86 33 200.5t126 212t201.5 129t206.5 31.5q115 0 221.5 -35.5t202.5 -130t141.5 -240t45.5 -284.5zM672 848q-51 0 -91 -24.5
t-63 -82.5h297q-8 41 -50 74t-93 33z" />
    <glyph glyph-name="f" unicode="f" horiz-adv-x="841" 
d="M862 1610l-107 -400h-49.5t-39 -8t-19.5 -55h198l-106 -418h-92v-729h-453v729h-131l109 418h22v29q0 243 113.5 338.5t285.5 95.5h269z" />
    <glyph glyph-name="g" unicode="g" horiz-adv-x="1323" 
d="M872 1112v43h412v-1016q0 -139 -21.5 -237.5t-126 -181t-344.5 -82.5q-243 0 -596 100l97 375q100 -35 207.5 -62.5t181.5 -27.5q65 0 108 26.5t51.5 70.5t8.5 165l-80 -185q-180 0 -328.5 35t-248 162t-99.5 336q0 112 45 222t142.5 186.5t177 93t113.5 20.5t71 4
q123 0 229 -47zM690 782q-64 0 -109 -45t-45 -108q0 -66 45 -111t109 -45h156v156q0 63 -45 108t-111 45z" />
    <glyph glyph-name="h" unicode="h" horiz-adv-x="1347" 
d="M169 1624h443v-700l84 235h112q119 0 210.5 -15.5t155 -83t87 -171t23.5 -209.5v-231h106l-117 -449h-442v528v50q0 79 -20.5 113t-96.5 34h-102v-725h-455v1182h-94z" />
    <glyph glyph-name="i" unicode="i" horiz-adv-x="708" 
d="M237 1624h438l-100 -385h-449zM169 1155h443v-706h104l-116 -449h-443v713h-94z" />
    <glyph glyph-name="j" unicode="j" horiz-adv-x="686" 
d="M251 1624h436l-100 -385h-447zM623 88q0 -207 -92 -327.5t-309 -120.5h-258l88 352q64 0 91.5 20.5t27.5 96.5v604h-94l106 442h440v-1067z" />
    <glyph glyph-name="k" unicode="k" horiz-adv-x="1265" 
d="M169 1624h443v-799l170 330h493l-264 -514l309 -641h-499l-209 436v-438h-455v1184h-94z" />
    <glyph glyph-name="l" unicode="l" horiz-adv-x="710" 
d="M169 1624h443v-1175h104l-116 -449h-443v1182h-94z" />
    <glyph glyph-name="m" unicode="m" horiz-adv-x="1945" 
d="M169 1155h443v-231l84 231h180q166 0 240.5 -49t134.5 -201l92 250h98q133 0 218 -14.5t159 -91.5q68 -66 84 -149t16 -198v-256h107l-117 -448l-442 2v477v70q0 65 -10.5 101t-42 49.5t-142.5 13.5v-711h-452v483v52q0 98 -17.5 138t-85.5 40h-104v-713h-455v713h-94z
" />
    <glyph glyph-name="n" unicode="n" horiz-adv-x="1333" 
d="M1271 446h107l-119 -448l-440 2v483v52q0 98 -17.5 138t-85.5 40h-104v-713h-455v713h-94l106 442h443v-231l84 231h180q180 0 287.5 -103.5t107.5 -340.5v-265z" />
    <glyph glyph-name="o" unicode="o" horiz-adv-x="1267" 
d="M685 1180q250 0 427 -177.5t177 -427.5q0 -249 -177 -426.5t-427 -177.5t-426 176.5t-176 427.5q0 248 176 426.5t426 178.5zM685 748q-72 0 -122 -50.5t-50 -122.5q0 -73 49 -122.5t123 -49.5t123 49.5t49 122.5q0 72 -50 122.5t-122 50.5z" />
    <glyph glyph-name="p" unicode="p" horiz-adv-x="1347" 
d="M606 20v-364h-449v1057h-94l104 442h445v-231l82 231q47 6 96 6q107 0 205 -34.5t197.5 -118.5t149.5 -203t50 -248v-63q-6 -27 -15 -94.5t-87 -186.5t-175.5 -162t-167 -58.5t-126.5 -15.5q-119 0 -215 43zM765 397q66 0 110 44t44 110q0 65 -45 110.5t-109 45.5h-153
v-156q0 -66 44 -110t109 -44z" />
    <glyph glyph-name="q" unicode="q" horiz-adv-x="1384" 
d="M880 1135v20h449v-1063h106l-118 -436h-441v575l-84 -231q-47 -6 -94 -6q-106 0 -205.5 33.5t-198 117.5t-149.5 204t-51 251q0 51 12.5 138t90 204t207.5 176.5t265 59.5q119 0 211 -43zM721 758q-64 0 -109 -45t-45 -109q0 -65 45 -110t109 -45h155v155q0 64 -45 109
t-110 45z" />
    <glyph glyph-name="r" unicode="r" horiz-adv-x="954" 
d="M970 1174l-143 -494q-29 12 -68 12q-28 0 -47.5 -5t-47.5 -27.5t-40 -70.5t-12 -120v-80v-389h-455v713h-94l106 442h443v-104q63 77 151 100t207 23z" />
    <glyph glyph-name="s" unicode="s" horiz-adv-x="966" 
d="M923 1059l-86 -357q-57 54 -121.5 76.5t-121.5 22.5q-11 0 -23 -12.5t-14 -26.5q-2 -12 9 -26.5t54 -27t81 -25.5t85 -37.5t86 -54.5t79 -87.5t40 -149.5q0 -84 -40 -169t-127 -135t-161.5 -61.5t-124.5 -11.5q-90 0 -196.5 25t-239.5 72l88 383q74 -60 144.5 -86.5
t117.5 -26.5q25 0 45.5 10.5t24.5 28.5q4 14 -6 31.5t-55 29t-61.5 15.5t-109 41t-144.5 129t-52 190q0 39 4 55.5t14.5 66.5t75 118.5t146.5 91.5t161 23q95 0 204.5 -29t223.5 -86z" />
    <glyph glyph-name="t" unicode="t" horiz-adv-x="774" 
d="M643 1401v-246h174l-107 -440h-67v-715h-455v715h-125l106 440h19v131z" />
    <glyph glyph-name="u" unicode="u" horiz-adv-x="1366" 
d="M169 1155h443v-567q0 -109 20.5 -135.5t100.5 -26.5h106v729h453v-706h106l-118 -449h-441v240l-88 -240h-121q-149 0 -230 16.5t-143.5 78t-81 143t-18.5 223.5v252h-94z" />
    <glyph glyph-name="v" unicode="v" horiz-adv-x="1280" 
d="M542 1155l137 -543l138 543h479l-342 -1155h-549l-342 1155h479z" />
    <glyph glyph-name="w" unicode="w" horiz-adv-x="1892" 
d="M63 1155h471l137 -512l158 512h342l158 -512l137 512h471l-377 -1155h-430l-129 444l-131 -444h-428z" />
    <glyph glyph-name="x" unicode="x" horiz-adv-x="1423" 
d="M90 1155h536l121 -229l123 229h536l-315 -541l365 -614h-541l-156 299l-155 -299h-541l365 612z" />
    <glyph glyph-name="y" unicode="y" horiz-adv-x="1312" 
d="M157 713h-94l106 442h443v-479q0 -150 34.5 -175.5t168.5 -25.5v680h448v-1051q0 -114 -25.5 -203t-98 -152.5t-187.5 -93.5t-250 -30q-139 0 -276.5 24.5t-262.5 69.5l97 373q61 -39 163.5 -68.5t194.5 -29.5q82 0 124 26.5t59.5 79t17.5 170.5l-86 -178
q-191 0 -279 12.5t-164.5 63.5t-104.5 143t-28 269v133z" />
    <glyph glyph-name="z" unicode="z" horiz-adv-x="886" 
d="M200 1155h678l-233 -735h221l-107 -420h-696l233 727h-208z" />
    <glyph glyph-name="braceleft" unicode="{" horiz-adv-x="950" 
d="M71 633q205 31 276.5 105.5t71.5 273.5v106q0 197 127 336t422 139v-100q-170 0 -247 -98.5t-77 -264.5v-116q0 -176 -97 -283.5t-351 -155.5q254 -49 351 -156.5t97 -285.5v-115q0 -165 77 -263.5t247 -98.5v-102q-293 0 -421 141t-128 336v104q0 205 -68.5 275.5
t-279.5 105.5v117z" />
    <glyph glyph-name="bar" unicode="|" horiz-adv-x="407" 
d="M293 -223h-156v1818h156v-1818z" />
    <glyph glyph-name="braceright" unicode="}" horiz-adv-x="915" 
d="M937 633v-117q-211 -35 -280.5 -106.5t-69.5 -274.5v-104q0 -195 -128 -336t-419 -141v102q168 0 246 99.5t78 262.5v115q0 178 97 286.5t351 155.5q-254 48 -351 155.5t-97 283.5v116q0 166 -77 264.5t-247 98.5v100q291 0 419 -140t128 -335v-106q0 -197 72.5 -272.5
t277.5 -106.5z" />
    <glyph glyph-name="asciitilde" unicode="~" horiz-adv-x="774" 
d="M669 1538l53 -270q-82 -56 -176 -56q-78 0 -144.5 28t-101.5 37t-65 9q-37 0 -71 -17.5t-73 -58.5l-51 258q47 43 94 62.5t96 19.5q37 0 80 -11t85 -29.5t72 -30t65 -11.5q67 0 137 70z" />
    <glyph glyph-name="dieresis" unicode="&#xa8;" horiz-adv-x="1024" 
 />
    <glyph glyph-name="copyright" unicode="&#xa9;" horiz-adv-x="1683" 
 />
    <glyph glyph-name="registered" unicode="&#xae;" horiz-adv-x="1683" 
 />
    <glyph glyph-name="acute" unicode="&#xb4;" horiz-adv-x="1024" 
 />
    <glyph glyph-name="paragraph" unicode="&#xb6;" horiz-adv-x="1024" 
d="M929 1435v-70h-127v-1365h-82v1365h-166v-1365h-84v738q-174 8 -275.5 102.5t-101.5 245.5q0 157 107.5 253t285.5 96h443z" />
    <glyph glyph-name="onequarter" unicode="&#xbc;" horiz-adv-x="1950" 
 />
    <glyph glyph-name="onehalf" unicode="&#xbd;" horiz-adv-x="1950" 
 />
    <glyph glyph-name="threequarters" unicode="&#xbe;" horiz-adv-x="1950" 
 />
    <glyph glyph-name="Agrave" unicode="&#xc0;" horiz-adv-x="1546" 
d="M1162 1569l445 -1569l-535 -2l-49 199h-410l-53 -197h-520l305 1104h-115l125 465h807zM429 2003h399l134 -340h-326zM716 643h203l-97 426z" />
    <glyph glyph-name="Aacute" unicode="&#xc1;" horiz-adv-x="1546" 
d="M1162 1569l445 -1569l-535 -2l-49 199h-410l-53 -197h-520l305 1104h-115l125 465h807zM1130 2003l-207 -340h-326l133 340h400zM716 643h203l-97 426z" />
    <glyph glyph-name="Acircumflex" unicode="&#xc2;" horiz-adv-x="1546" 
d="M1162 1569l445 -1569l-535 -2l-49 199h-410l-53 -197h-520l305 1104h-115l125 465h807zM601 1997h311l218 -334h-302l-71 123l-70 -123h-301zM716 643h203l-97 426z" />
    <glyph glyph-name="Atilde" unicode="&#xc3;" horiz-adv-x="1546" 
d="M1162 1569l445 -1569l-535 -2l-49 199h-410l-53 -197h-520l305 1104h-115l125 465h807zM1058 1987l53 -269q-82 -57 -174 -57q-78 0 -146.5 28.5t-103.5 38t-61 9.5q-39 0 -73 -17.5t-73 -58.5l-51 258q47 45 91 63.5t95 18.5q39 0 82 -12.5t89.5 -32t77 -28.5t57.5 -9
q67 0 137 68zM716 643h203l-97 426z" />
    <glyph glyph-name="Egrave" unicode="&#xc8;" horiz-adv-x="1218" 
d="M796 1624h446l-139 -549h-457v-92h555l-96 -397h-459v-105h557l-123 -481h-925v1083h-115l131 486h598zM368 2003h399l133 -340h-325z" />
    <glyph glyph-name="Eacute" unicode="&#xc9;" horiz-adv-x="1218" 
d="M796 1624h446l-139 -549h-457v-92h555l-96 -397h-459v-105h557l-123 -481h-925v1083h-115l131 486h598zM931 2003l-207 -340h-326l134 340h399z" />
    <glyph glyph-name="Ecircumflex" unicode="&#xca;" horiz-adv-x="1218" 
d="M796 1624h446l-139 -549h-457v-92h555l-96 -397h-459v-105h557l-123 -481h-925v1083h-115l131 486h598zM509 1997h313l215 -334h-299l-73 123l-68 -123h-303z" />
    <glyph glyph-name="Igrave" unicode="&#xcc;" horiz-adv-x="741" 
d="M171 1569h475v-1569h-491v1083h-115zM114 2003h399l133 -340h-325z" />
    <glyph glyph-name="Iacute" unicode="&#xcd;" horiz-adv-x="741" 
d="M171 1569h475v-1569h-491v1083h-115zM730 2003l-207 -340h-325l133 340h399z" />
    <glyph glyph-name="Ograve" unicode="&#xd2;" 
d="M868 1585q334 0 569.5 -235.5t235.5 -567.5q0 -331 -235.5 -566.5t-569.5 -235.5q-332 0 -567.5 235.5t-235.5 566.5q0 332 235.5 567.5t567.5 235.5zM505 2003h400l133 -340h-326zM868 1090q-127 0 -217 -90.5t-90 -217.5t90 -217t217 -90t218 89t91 218
q0 127 -90 217.5t-219 90.5z" />
    <glyph glyph-name="Oacute" unicode="&#xd3;" 
d="M868 1585q334 0 569.5 -235.5t235.5 -567.5q0 -331 -235.5 -566.5t-569.5 -235.5q-332 0 -567.5 235.5t-235.5 566.5q0 332 235.5 567.5t567.5 235.5zM1218 2005l-207 -340h-325l135 340h397zM868 1090q-127 0 -217 -90.5t-90 -217.5t90 -217t217 -90t218 89t91 218
q0 127 -90 217.5t-219 90.5z" />
    <glyph glyph-name="Ocircumflex" unicode="&#xd4;" 
d="M868 1585q334 0 569.5 -235.5t235.5 -567.5q0 -331 -235.5 -566.5t-569.5 -235.5q-332 0 -567.5 235.5t-235.5 566.5q0 332 235.5 567.5t567.5 235.5zM714 1997h314l217 -334h-299l-74 123l-68 -123h-303zM868 1090q-127 0 -217 -90.5t-90 -217.5t90 -217t217 -90t218 89
t91 218q0 127 -90 217.5t-219 90.5z" />
    <glyph glyph-name="Otilde" unicode="&#xd5;" 
d="M1150 1987l54 -269q-84 -57 -174 -57q-76 0 -145.5 28.5t-104.5 38t-62 9.5q-39 0 -72.5 -17.5t-72.5 -58.5l-53 258q49 45 93 63.5t93 18.5q39 0 82 -12.5t89 -32t77 -28.5t57 -9q66 0 139 68zM868 1585q334 0 569.5 -235.5t235.5 -567.5q0 -331 -235.5 -566.5
t-569.5 -235.5q-332 0 -567.5 235.5t-235.5 566.5q0 332 235.5 567.5t567.5 235.5zM868 1090q-127 0 -217 -90.5t-90 -217.5t90 -217t217 -90t218 89t91 218q0 127 -90 217.5t-219 90.5z" />
    <glyph glyph-name="Ugrave" unicode="&#xd9;" horiz-adv-x="1492" 
d="M646 735q0 -26 -1 -47.5t-1 -38.5q0 -71 14.5 -117.5t51.5 -68t78 -21.5q36 0 77 19.5t54.5 81t13.5 190.5v836h489v-889q0 -209 -55 -371t-176 -232.5t-212 -91t-189 -20.5q-211 0 -367 90t-212 258t-56 367v403h-115l131 486h475v-834zM429 2005h399l134 -340h-326z
" />
    <glyph glyph-name="Uacute" unicode="&#xda;" horiz-adv-x="1492" 
d="M646 735q0 -26 -1 -47.5t-1 -38.5q0 -71 14.5 -117.5t51.5 -68t78 -21.5q36 0 77 19.5t54.5 81t13.5 190.5v836h489v-889q0 -209 -55 -371t-176 -232.5t-212 -91t-189 -20.5q-211 0 -367 90t-212 258t-56 367v403h-115l131 486h475v-834zM1160 2003l-207 -340h-325
l133 340h399z" />
    <glyph glyph-name="Yacute" unicode="&#xdd;" horiz-adv-x="1359" 
d="M40 1569h537l151 -332l152 332h536l-440 -856v-713h-494v713zM1087 2003l-207 -340h-326l133 340h400z" />
    <glyph glyph-name="agrave" unicode="&#xe0;" horiz-adv-x="1402" 
d="M880 1135v20h449v-706h106l-118 -449h-441v231l-84 -231q-47 -6 -94 -6q-106 0 -205.5 33.5t-198 117.5t-149.5 204t-51 251q0 51 12.5 138t90 204t207.5 176.5t265 59.5q119 0 211 -43zM475 1606h399l135 -340h-329zM721 758q-64 0 -109 -45t-45 -109q0 -65 45 -110
t109 -45h155v155q0 64 -45 109t-110 45z" />
    <glyph glyph-name="aacute" unicode="&#xe1;" horiz-adv-x="1402" 
d="M880 1135v20h449v-706h106l-118 -449h-441v231l-84 -231q-47 -6 -94 -6q-106 0 -205.5 33.5t-198 117.5t-149.5 204t-51 251q0 51 12.5 138t90 204t207.5 176.5t265 59.5q119 0 211 -43zM1077 1606l-207 -340h-325l133 340h399zM721 758q-64 0 -109 -45t-45 -109
q0 -65 45 -110t109 -45h155v155q0 64 -45 109t-110 45z" />
    <glyph glyph-name="acircumflex" unicode="&#xe2;" horiz-adv-x="1402" 
d="M880 1135v20h449v-706h106l-118 -449h-441v231l-84 -231q-47 -6 -94 -6q-106 0 -205.5 33.5t-198 117.5t-149.5 204t-51 251q0 51 12.5 138t90 204t207.5 176.5t265 59.5q119 0 211 -43zM647 1604h313l217 -334h-301l-71 123l-70 -123h-301zM721 758q-64 0 -109 -45
t-45 -109q0 -65 45 -110t109 -45h155v155q0 64 -45 109t-110 45z" />
    <glyph glyph-name="atilde" unicode="&#xe3;" horiz-adv-x="1402" 
d="M880 1135v20h449v-706h106l-118 -449h-441v231l-84 -231q-47 -6 -94 -6q-106 0 -205.5 33.5t-198 117.5t-149.5 204t-51 251q0 51 12.5 138t90 204t207.5 176.5t265 59.5q119 0 211 -43zM1075 1589l53 -268q-84 -57 -176 -57q-78 0 -172 41q-35 12 -68.5 24t-70.5 12
q-39 0 -73 -17t-73 -60l-49 258q49 45 93 63.5t94 18.5q39 0 81 -11.5t89 -31t77.5 -28.5t57.5 -9q37 0 67.5 14t69.5 51zM721 758q-64 0 -109 -45t-45 -109q0 -65 45 -110t109 -45h155v155q0 64 -45 109t-110 45z" />
    <glyph glyph-name="egrave" unicode="&#xe8;" horiz-adv-x="1228" 
d="M348 1606h400l133 -340h-326zM1264 477h-691q148 -110 359 -110q133 0 278 47l-94 -387q-61 -17 -146 -28t-167 -11q-164 0 -313.5 47t-238.5 139t-127 199.5t-38 220.5q0 86 33 200.5t126 212t201.5 129t206.5 31.5q115 0 221.5 -35.5t202.5 -130t141.5 -240
t45.5 -284.5zM672 848q-51 0 -91 -24.5t-63 -82.5h297q-8 41 -50 74t-93 33z" />
    <glyph glyph-name="eacute" unicode="&#xe9;" horiz-adv-x="1228" 
d="M1006 1606l-207 -340h-328l135 340h400zM1264 477h-691q148 -110 359 -110q133 0 278 47l-94 -387q-61 -17 -146 -28t-167 -11q-164 0 -313.5 47t-238.5 139t-127 199.5t-38 220.5q0 86 33 200.5t126 212t201.5 129t206.5 31.5q115 0 221.5 -35.5t202.5 -130t141.5 -240
t45.5 -284.5zM672 848q-51 0 -91 -24.5t-63 -82.5h297q-8 41 -50 74t-93 33z" />
    <glyph glyph-name="ecircumflex" unicode="&#xea;" horiz-adv-x="1228" 
d="M532 1597h314l215 -333h-299l-74 122l-67 -122h-304zM1264 477h-691q148 -110 359 -110q133 0 278 47l-94 -387q-61 -17 -146 -28t-167 -11q-164 0 -313.5 47t-238.5 139t-127 199.5t-38 220.5q0 86 33 200.5t126 212t201.5 129t206.5 31.5q115 0 221.5 -35.5t202.5 -130
t141.5 -240t45.5 -284.5zM672 848q-51 0 -91 -24.5t-63 -82.5h297q-8 41 -50 74t-93 33z" />
    <glyph glyph-name="igrave" unicode="&#xec;" horiz-adv-x="708" 
d="M227 1155h440v-706h108l-120 -449h-439v713h-98zM122 1606h399l134 -340h-326z" />
    <glyph glyph-name="iacute" unicode="&#xed;" horiz-adv-x="708" 
d="M227 1155h440v-706h108l-120 -449h-439v713h-98zM786 1606l-205 -340h-328l133 340h400z" />
    <glyph glyph-name="ograve" unicode="&#xf2;" horiz-adv-x="1267" 
d="M685 1180q250 0 427 -177.5t177 -427.5q0 -249 -177 -426.5t-427 -177.5t-426 176.5t-176 427.5q0 248 176 426.5t426 178.5zM325 1606h399l133 -340h-325zM685 748q-72 0 -122 -50.5t-50 -122.5q0 -73 49 -122.5t123 -49.5t123 49.5t49 122.5q0 72 -50 122.5t-122 50.5z
" />
    <glyph glyph-name="oacute" unicode="&#xf3;" horiz-adv-x="1267" 
d="M685 1180q250 0 427 -177.5t177 -427.5q0 -249 -177 -426.5t-427 -177.5t-426 176.5t-176 427.5q0 248 176 426.5t426 178.5zM1052 1606l-207 -340h-326l133 340h400zM685 748q-72 0 -122 -50.5t-50 -122.5q0 -73 49 -122.5t123 -49.5t123 49.5t49 122.5q0 72 -50 122.5
t-122 50.5z" />
    <glyph glyph-name="ocircumflex" unicode="&#xf4;" horiz-adv-x="1267" 
d="M685 1180q250 0 427 -177.5t177 -427.5q0 -249 -177 -426.5t-427 -177.5t-426 176.5t-176 427.5q0 248 176 426.5t426 178.5zM540 1599h311l217 -333h-299l-74 123l-67 -123h-303zM685 748q-72 0 -122 -50.5t-50 -122.5q0 -73 49 -122.5t123 -49.5t123 49.5t49 122.5
q0 72 -50 122.5t-122 50.5z" />
    <glyph glyph-name="otilde" unicode="&#xf5;" horiz-adv-x="1267" 
d="M685 1180q250 0 427 -177.5t177 -427.5q0 -249 -177 -426.5t-427 -177.5t-426 176.5t-176 427.5q0 248 176 426.5t426 178.5zM976 1581l51 -268q-84 -58 -176 -58q-74 0 -165 39t-144 39q-39 0 -73 -17.5t-73 -60.5l-51 258q49 46 94 64t95 18q75 0 145 -30.5
t101.5 -39.5t58.5 -9q35 0 65.5 14t71.5 51zM685 748q-72 0 -122 -50.5t-50 -122.5q0 -73 49 -122.5t123 -49.5t123 49.5t49 122.5q0 72 -50 122.5t-122 50.5z" />
    <glyph glyph-name="divide" unicode="&#xf7;" horiz-adv-x="1706" 
 />
    <glyph glyph-name="glyph216" unicode="&#xf9;" horiz-adv-x="1366" 
d="M169 1155h443v-567q0 -109 20.5 -135.5t100.5 -26.5h106v729h453v-706h106l-118 -449h-441v240l-88 -240h-121q-149 0 -230 16.5t-143.5 78t-81 143t-18.5 223.5v252h-94zM356 1606h399l133 -340h-325z" />
    <glyph glyph-name="glyph217" unicode="&#xfa;" horiz-adv-x="1366" 
d="M169 1155h443v-567q0 -109 20.5 -135.5t100.5 -26.5h106v729h453v-706h106l-118 -449h-441v240l-88 -240h-121q-149 0 -230 16.5t-143.5 78t-81 143t-18.5 223.5v252h-94zM1087 1606l-207 -340h-325l133 340h399z" />
    <glyph glyph-name="glyph234" unicode="&#xfd;" horiz-adv-x="1312" 
d="M157 713h-94l106 442h443v-479q0 -150 34.5 -175.5t168.5 -25.5v680h448v-1051q0 -114 -25.5 -203t-98 -152.5t-187.5 -93.5t-250 -30q-139 0 -276.5 24.5t-262.5 69.5l97 373q61 -39 163.5 -68.5t194.5 -29.5q82 0 124 26.5t59.5 79t17.5 170.5l-86 -178
q-191 0 -279 12.5t-164.5 63.5t-104.5 143t-28 269v133zM993 1606l-207 -340h-326l133 340h400z" />
    <glyph glyph-name="Abreve" unicode="&#x102;" horiz-adv-x="1546" 
d="M1162 1569l445 -1569l-535 -2l-49 199h-410l-53 -197h-520l305 1104h-115l125 465h807zM716 643h203l-97 426zM386 1931h301q10 -72 74 -69t67 69h302q-68 -306 -359.5 -315.5t-384.5 315.5z" />
    <glyph glyph-name="abreve" unicode="&#x103;" horiz-adv-x="1402" 
d="M880 1135v20h449v-706h106l-118 -449h-441v231l-84 -231q-47 -6 -94 -6q-106 0 -205.5 33.5t-198 117.5t-149.5 204t-51 251q0 51 12.5 138t90 204t207.5 176.5t265 59.5q119 0 211 -43zM721 758q-64 0 -109 -45t-45 -109q0 -65 45 -110t109 -45h155v155q0 64 -45 109
t-110 45zM443 1554h301q10 -72 74 -69t67 69h302q-68 -306 -359.5 -315.5t-384.5 315.5z" />
    <glyph glyph-name="Ccaron" unicode="&#x10c;" horiz-adv-x="1274" 
 />
    <glyph glyph-name="ccaron" unicode="&#x10d;" horiz-adv-x="922" 
 />
    <glyph glyph-name="Dslash" unicode="&#x110;" horiz-adv-x="1403" 
d="M643 577v-77q113 0 182.5 48t97 117.5t27.5 143.5q0 96 -39.5 159.5t-110.5 91t-157 27.5v-127h122l-58 -383h-64zM152 960v123h-115l131 486h457q217 0 397 -81t262 -219.5t107.5 -242.5t25.5 -221q0 -260 -114.5 -456.5t-311 -272.5t-448.5 -76h-391v577h-126l69 383
h57z" />
    <glyph glyph-name="dcroat" unicode="&#x111;" horiz-adv-x="1400" 
d="M721 758q-64 0 -109 -45t-45 -109q0 -65 45 -110t109 -45h155v155q0 64 -45 109t-110 45zM1329 1185v-736h106l-118 -449h-441v231l-84 -231h-86q-114 0 -213.5 30.5t-198 114.5t-149.5 204t-51 251q0 51 13.5 139t88 204t166.5 157t167 54t145 13q131 0 206 -32v47h-168
l105 442h599l-65 -440z" />
    <glyph glyph-name="Itilde" unicode="&#x128;" horiz-adv-x="741" 
d="M171 1569h475v-1569h-491v1083h-115zM680 2025l53 -269q-82 -57 -174 -57q-78 0 -146.5 28.5t-103.5 38t-61 9.5q-39 0 -73 -17.5t-73 -58.5l-51 258q47 45 91 63.5t96 18.5q38 0 81 -12.5t89.5 -32t77 -28.5t57.5 -9q67 0 137 68z" />
    <glyph glyph-name="itilde" unicode="&#x129;" horiz-adv-x="708" 
d="M169 1155h443v-706h104l-116 -449h-443v713h-94zM734 1589l53 -268q-84 -57 -176 -57q-78 0 -172 41q-35 12 -68.5 24t-70.5 12q-39 0 -73 -17t-73 -60l-49 258q49 45 93 63.5t94 18.5q39 0 81 -11.5t89 -31t77.5 -28.5t57.5 -9q37 0 67.5 14t69.5 51z" />
    <glyph glyph-name="Utilde" unicode="&#x168;" horiz-adv-x="1492" 
d="M646 735q0 -26 -1 -47.5t-1 -38.5q0 -71 14.5 -117.5t51.5 -68t78 -21.5q36 0 77 19.5t54.5 81t13.5 190.5v836h489v-889q0 -209 -55 -371t-176 -232.5t-212 -91t-189 -20.5q-211 0 -367 90t-212 258t-56 367v403h-115l131 486h475v-834zM1093 1987l54 -269
q-84 -57 -174 -57q-76 0 -145.5 28.5t-104.5 38t-62 9.5q-39 0 -72.5 -17.5t-72.5 -58.5l-53 258q49 45 93 63.5t93 18.5q39 0 82 -12.5t89 -32t77 -28.5t57 -9q66 0 139 68z" />
    <glyph glyph-name="utilde" unicode="&#x169;" horiz-adv-x="1366" 
d="M169 1155h443v-567q0 -109 20.5 -135.5t100.5 -26.5h106v729h453v-706h106l-118 -449h-441v240l-88 -240h-121q-149 0 -230 16.5t-143.5 78t-81 143t-18.5 223.5v252h-94zM1042 1581l51 -268q-84 -58 -176 -58q-74 0 -165 39t-144 39q-39 0 -73 -17.5t-73 -60.5l-51 258
q49 46 94 64t95 18q75 0 145 -30.5t101.5 -39.5t58.5 -9q35 0 65.5 14t71.5 51z" />
    <glyph glyph-name="Ohorn" unicode="&#x1a0;" 
d="M868 1090q-127 0 -217 -90.5t-90 -217.5t90 -217t217 -90t218 89t91 218q0 127 -90 217.5t-219 90.5zM1455 1331q218 -230 218 -549q0 -331 -235.5 -566.5t-569.5 -235.5q-332 0 -567.5 235.5t-235.5 566.5q0 332 235.5 567.5t567.5 235.5q230 0 414 -112l85 267h388
l-201 -409h-99z" />
    <glyph glyph-name="ohorn" unicode="&#x1a1;" horiz-adv-x="1267" 
d="M685 748q-72 0 -122 -50.5t-50 -122.5q0 -73 49 -122.5t123 -49.5t123 49.5t49 122.5q0 72 -50 122.5t-122 50.5zM1192 906q97 -146 97 -331q0 -249 -177 -426.5t-427 -177.5t-426 176.5t-176 427.5q0 248 176 426.5t426 178.5q187 0 333 -99l74 234h388l-201 -409h-87z
" />
    <glyph glyph-name="Uhorn" unicode="&#x1af;" horiz-adv-x="1492" 
d="M646 735q0 -26 -1 -47.5t-1 -38.5q0 -71 14.5 -117.5t51.5 -68t78 -21.5q36 0 77 19.5t54.5 81t13.5 190.5v836h489v-889q0 -209 -55 -371t-176 -232.5t-212 -91t-189 -20.5q-211 0 -367 90t-212 258t-56 367v403h-115l131 486h475v-834zM1698 1740l-201 -409h-317
l130 409h388z" />
    <glyph glyph-name="uhorn" unicode="&#x1b0;" horiz-adv-x="1366" 
d="M1292 906v-457h107l-119 -449h-440v240l-88 -240h-121q-150 0 -231 16.5t-143 78t-80.5 143t-18.5 223.5v252h-95l107 442h442v-567q0 -109 20.5 -135.5t100.5 -26.5h107v729h268l51 160h388l-201 -409h-54z" />
    <glyph glyph-name="uni1EA0" unicode="&#x1ea0;" horiz-adv-x="1546" 
d="M1162 1569l445 -1569l-535 -2l-49 199h-410l-53 -197h-520l305 1104h-115l125 465h807zM675 -118h319l-90 -340h-323zM716 643h203l-97 426z" />
    <glyph glyph-name="uni1EA1" unicode="&#x1ea1;" horiz-adv-x="1402" 
d="M880 1135v20h449v-706h106l-118 -449h-441v231l-84 -231q-47 -6 -94 -6q-106 0 -205.5 33.5t-198 117.5t-149.5 204t-51 251q0 51 12.5 138t90 204t207.5 176.5t265 59.5q119 0 211 -43zM721 758q-64 0 -109 -45t-45 -109q0 -65 45 -110t109 -45h155v155q0 64 -45 109
t-110 45zM589 -118h320l-91 -340h-323z" />
    <glyph glyph-name="uni1EA2" unicode="&#x1ea2;" horiz-adv-x="1546" 
d="M1162 1569l445 -1569l-535 -2l-49 199h-410l-53 -197h-520l305 1104h-115l125 465h807zM716 643h203l-97 426zM671 1666v170q23 -7 48 -7q17 0 34.5 4t39.5 21t17 47q-3 16 -16.5 31.5t-27.5 17.5t-24 2q-23 0 -43.5 -8t-52.5 -32l-129 168q57 47 121 70t127 23
q15 0 29.5 -1.5t36.5 -5.5q60 -14 110.5 -55.5t66.5 -95.5t16 -94q0 -50 -14 -94t-48 -84.5t-92.5 -62.5t-121.5 -22q-38 0 -77 8z" />
    <glyph glyph-name="uni1EA3" unicode="&#x1ea3;" horiz-adv-x="1402" 
d="M880 1135v20h449v-706h106l-118 -449h-441v231l-84 -231q-47 -6 -94 -6q-106 0 -205.5 33.5t-198 117.5t-149.5 204t-51 251q0 51 12.5 138t90 204t207.5 176.5t265 59.5q119 0 211 -43zM721 758q-64 0 -109 -45t-45 -109q0 -65 45 -110t109 -45h155v155q0 64 -45 109
t-110 45zM706 1270v170q24 -7 48 -7q17 0 34.5 4t39.5 21t17 47q-3 16 -16.5 31.5t-27.5 17.5t-24 2q-23 0 -43.5 -8t-52.5 -32l-129 168q57 47 121 70t128 23q14 0 28.5 -1.5t36.5 -5.5q60 -14 110.5 -55.5t66.5 -95.5t16 -94q0 -50 -14 -94t-48 -84.5t-92.5 -62.5
t-121.5 -22q-38 0 -77 8z" />
    <glyph glyph-name="uni1EA4" unicode="&#x1ea4;" horiz-adv-x="1546" 
d="M1162 1569l445 -1569l-535 -2l-49 199h-410l-53 -197h-520l305 1104h-115l125 465h807zM1574 2230l-207 -340h-326l133 340h400zM716 643h203l-97 426zM601 1997h311l218 -334h-302l-71 123l-70 -123h-301z" />
    <glyph glyph-name="uni1EA5" unicode="&#x1ea5;" horiz-adv-x="1402" 
d="M880 1135v20h449v-706h106l-118 -449h-441v231l-84 -231q-47 -6 -94 -6q-106 0 -205.5 33.5t-198 117.5t-149.5 204t-51 251q0 51 12.5 138t90 204t207.5 176.5t265 59.5q119 0 211 -43zM1605 1850l-207 -340h-325l133 340h399zM721 758q-64 0 -109 -45t-45 -109
q0 -65 45 -110t109 -45h155v155q0 64 -45 109t-110 45zM647 1604h313l217 -334h-301l-71 123l-70 -123h-301z" />
    <glyph glyph-name="uni1EA6" unicode="&#x1ea6;" horiz-adv-x="1546" 
d="M1162 1569l445 -1569l-535 -2l-49 199h-410l-53 -197h-520l305 1104h-115l125 465h807zM854 2211h399l134 -340h-326zM716 643h203l-97 426zM601 1997h311l218 -334h-302l-71 123l-70 -123h-301z" />
    <glyph glyph-name="uni1EA7" unicode="&#x1ea7;" horiz-adv-x="1402" 
d="M880 1135v20h449v-706h106l-118 -449h-441v231l-84 -231q-47 -6 -94 -6q-106 0 -205.5 33.5t-198 117.5t-149.5 204t-51 251q0 51 12.5 138t90 204t207.5 176.5t265 59.5q119 0 211 -43zM909 1852h399l135 -340h-329zM721 758q-64 0 -109 -45t-45 -109q0 -65 45 -110
t109 -45h155v155q0 64 -45 109t-110 45zM647 1604h313l217 -334h-301l-71 123l-70 -123h-301z" />
    <glyph glyph-name="uni1EA8" unicode="&#x1ea8;" horiz-adv-x="1546" 
d="M1162 1569l445 -1569l-535 -2l-49 199h-410l-53 -197h-520l305 1104h-115l125 465h807zM716 643h203l-97 426zM601 1997h311l218 -334h-302l-71 123l-70 -123h-301zM1034 1892v170q23 -7 48 -7q17 0 34.5 4t39.5 21t17 47q-3 16 -16.5 31.5t-27.5 17.5t-24 2
q-23 0 -43.5 -8t-52.5 -32l-129 168q57 47 121 70t127 23q15 0 29.5 -1.5t36.5 -5.5q60 -14 110.5 -55.5t66.5 -95.5t16 -94q0 -50 -14 -94t-48 -84.5t-92.5 -62.5t-121.5 -22q-38 0 -77 8z" />
    <glyph glyph-name="uni1EA9" unicode="&#x1ea9;" horiz-adv-x="1402" 
d="M880 1135v20h449v-706h106l-118 -449h-441v231l-84 -231q-47 -6 -94 -6q-106 0 -205.5 33.5t-198 117.5t-149.5 204t-51 251q0 51 12.5 138t90 204t207.5 176.5t265 59.5q119 0 211 -43zM721 758q-64 0 -109 -45t-45 -109q0 -65 45 -110t109 -45h155v155q0 64 -45 109
t-110 45zM1093 1459v170q24 -7 48 -7q17 0 34.5 4t39.5 21t17 47q-3 16 -16.5 31.5t-27.5 17.5t-24 2q-23 0 -43.5 -8t-52.5 -32l-129 168q57 47 121 70t128 23q14 0 28.5 -1.5t36.5 -5.5q60 -14 110.5 -55.5t66.5 -95.5t16 -94q0 -50 -14 -94t-48 -84.5t-92.5 -62.5
t-121.5 -22q-38 0 -77 8zM647 1604h313l217 -334h-301l-71 123l-70 -123h-301z" />
    <glyph glyph-name="uni1EAA" unicode="&#x1eaa;" horiz-adv-x="1546" 
d="M1162 1569l445 -1569l-535 -2l-49 199h-410l-53 -197h-520l305 1104h-115l125 465h807zM1134 2374l53 -269q-82 -57 -174 -57q-78 0 -146.5 28.5t-103.5 38t-61 9.5q-39 0 -73 -17.5t-73 -58.5l-51 258q47 45 91 63.5t95 18.5q39 0 82 -12.5t89.5 -32t77 -28.5t57.5 -9
q67 0 137 68zM716 643h203l-97 426zM601 1997h311l218 -334h-302l-71 123l-70 -123h-301z" />
    <glyph glyph-name="uni1EAB" unicode="&#x1eab;" horiz-adv-x="1402" 
d="M880 1135v20h449v-706h106l-118 -449h-441v231l-84 -231q-47 -6 -94 -6q-106 0 -205.5 33.5t-198 117.5t-149.5 204t-51 251q0 51 12.5 138t90 204t207.5 176.5t265 59.5q119 0 211 -43zM1141 1976l53 -268q-84 -57 -176 -57q-78 0 -172 41q-35 12 -68.5 24t-70.5 12
q-39 0 -73 -17t-73 -60l-49 258q49 45 93 63.5t94 18.5q39 0 81 -11.5t89 -31t77.5 -28.5t57.5 -9q37 0 67.5 14t69.5 51zM721 758q-64 0 -109 -45t-45 -109q0 -65 45 -110t109 -45h155v155q0 64 -45 109t-110 45zM647 1604h313l217 -334h-301l-71 123l-70 -123h-301z" />
    <glyph glyph-name="uni1EAC" unicode="&#x1eac;" horiz-adv-x="1546" 
d="M1162 1569l445 -1569l-535 -2l-49 199h-410l-53 -197h-520l305 1104h-115l125 465h807zM675 -118h319l-90 -340h-323zM716 643h203l-97 426z" />
    <glyph glyph-name="uni1EAD" unicode="&#x1ead;" horiz-adv-x="1402" 
d="M880 1135v20h449v-706h106l-118 -449h-441v231l-84 -231q-47 -6 -94 -6q-106 0 -205.5 33.5t-198 117.5t-149.5 204t-51 251q0 51 12.5 138t90 204t207.5 176.5t265 59.5q119 0 211 -43zM721 758q-64 0 -109 -45t-45 -109q0 -65 45 -110t109 -45h155v155q0 64 -45 109
t-110 45zM589 -118h320l-91 -340h-323zM647 1604h313l217 -334h-301l-71 123l-70 -123h-301z" />
    <glyph glyph-name="uni1EAE" unicode="&#x1eae;" horiz-adv-x="1546" 
d="M1162 1569l445 -1569l-535 -2l-49 199h-410l-53 -197h-520l305 1104h-115l125 465h807zM1112 2308l-207 -340h-326l133 340h400zM716 643h203l-97 426zM386 1931h301q10 -72 74 -69t67 69h302q-68 -306 -359.5 -315.5t-384.5 315.5z" />
    <glyph glyph-name="uni1EAF" unicode="&#x1eaf;" horiz-adv-x="1402" 
d="M880 1135v20h449v-706h106l-118 -449h-441v231l-84 -231q-47 -6 -94 -6q-106 0 -205.5 33.5t-198 117.5t-149.5 204t-51 251q0 51 12.5 138t90 204t207.5 176.5t265 59.5q119 0 211 -43zM1162 1954l-207 -340h-325l133 340h399zM721 758q-64 0 -109 -45t-45 -109
q0 -65 45 -110t109 -45h155v155q0 64 -45 109t-110 45zM443 1554h301q10 -72 74 -69t67 69h302q-68 -306 -359.5 -315.5t-384.5 315.5z" />
    <glyph glyph-name="uni1EB0" unicode="&#x1eb0;" horiz-adv-x="1546" 
d="M1162 1569l445 -1569l-535 -2l-49 199h-410l-53 -197h-520l305 1104h-115l125 465h807zM464 2313h399l134 -340h-326zM716 643h203l-97 426zM386 1931h301q10 -72 74 -69t67 69h302q-68 -306 -359.5 -315.5t-384.5 315.5z" />
    <glyph glyph-name="uni1EB1" unicode="&#x1eb1;" horiz-adv-x="1402" 
d="M880 1135v20h449v-706h106l-118 -449h-441v231l-84 -231q-47 -6 -94 -6q-106 0 -205.5 33.5t-198 117.5t-149.5 204t-51 251q0 51 12.5 138t90 204t207.5 176.5t265 59.5q119 0 211 -43zM512 1965h399l135 -340h-329zM721 758q-64 0 -109 -45t-45 -109q0 -65 45 -110
t109 -45h155v155q0 64 -45 109t-110 45zM443 1554h301q10 -72 74 -69t67 69h302q-68 -306 -359.5 -315.5t-384.5 315.5z" />
    <glyph glyph-name="uni1EB2" unicode="&#x1eb2;" horiz-adv-x="1546" 
d="M1162 1569l445 -1569l-535 -2l-49 199h-410l-53 -197h-520l305 1104h-115l125 465h807zM716 643h203l-97 426zM671 1988v170q23 -7 48 -7q17 0 34.5 4t39.5 21t17 47q-3 16 -16.5 31.5t-27.5 17.5t-24 2q-23 0 -43.5 -8t-52.5 -32l-129 168q57 47 121 70t127 23
q15 0 29.5 -1.5t36.5 -5.5q60 -14 110.5 -55.5t66.5 -95.5t16 -94q0 -50 -14 -94t-48 -84.5t-92.5 -62.5t-121.5 -22q-38 0 -77 8zM386 1931h301q10 -72 74 -69t67 69h302q-68 -306 -359.5 -315.5t-384.5 315.5z" />
    <glyph glyph-name="uni1EB3" unicode="&#x1eb3;" horiz-adv-x="1402" 
d="M880 1135v20h449v-706h106l-118 -449h-441v231l-84 -231q-47 -6 -94 -6q-106 0 -205.5 33.5t-198 117.5t-149.5 204t-51 251q0 51 12.5 138t90 204t207.5 176.5t265 59.5q119 0 211 -43zM721 758q-64 0 -109 -45t-45 -109q0 -65 45 -110t109 -45h155v155q0 64 -45 109
t-110 45zM764 1591v170q24 -7 48 -7q17 0 34.5 4t39.5 21t17 47q-3 16 -16.5 31.5t-27.5 17.5t-24 2q-23 0 -43.5 -8t-52.5 -32l-129 168q57 47 121 70t128 23q14 0 28.5 -1.5t36.5 -5.5q60 -14 110.5 -55.5t66.5 -95.5t16 -94q0 -50 -14 -94t-48 -84.5t-92.5 -62.5
t-121.5 -22q-38 0 -77 8zM443 1554h301q10 -72 74 -69t67 69h302q-68 -306 -359.5 -315.5t-384.5 315.5z" />
    <glyph glyph-name="uni1EB4" unicode="&#x1eb4;" horiz-adv-x="1546" 
d="M1162 1569l445 -1569l-535 -2l-49 199h-410l-53 -197h-520l305 1104h-115l125 465h807zM1134 2374l53 -269q-82 -57 -174 -57q-78 0 -146.5 28.5t-103.5 38t-61 9.5q-39 0 -73 -17.5t-73 -58.5l-51 258q47 45 91 63.5t95 18.5q39 0 82 -12.5t89.5 -32t77 -28.5t57.5 -9
q67 0 137 68zM716 643h203l-97 426zM601 1997h311l218 -334h-302l-71 123l-70 -123h-301z" />
    <glyph glyph-name="uni1EB5" unicode="&#x1eb5;" horiz-adv-x="1402" 
d="M880 1135v20h449v-706h106l-118 -449h-441v231l-84 -231q-47 -6 -94 -6q-106 0 -205.5 33.5t-198 117.5t-149.5 204t-51 251q0 51 12.5 138t90 204t207.5 176.5t265 59.5q119 0 211 -43zM1160 1957l53 -268q-84 -57 -176 -57q-78 0 -172 41q-35 12 -68.5 24t-70.5 12
q-39 0 -73 -17t-73 -60l-49 258q49 45 93 63.5t94 18.5q39 0 81 -11.5t89 -31t77.5 -28.5t57.5 -9q37 0 67.5 14t69.5 51zM721 758q-64 0 -109 -45t-45 -109q0 -65 45 -110t109 -45h155v155q0 64 -45 109t-110 45zM443 1554h301q10 -72 74 -69t67 69h302
q-68 -306 -359.5 -315.5t-384.5 315.5z" />
    <glyph glyph-name="uni1EB6" unicode="&#x1eb6;" horiz-adv-x="1546" 
d="M1162 1569l445 -1569l-535 -2l-49 199h-410l-53 -197h-520l305 1104h-115l125 465h807zM675 -118h319l-90 -340h-323zM716 643h203l-97 426z" />
    <glyph glyph-name="uni1EB7" unicode="&#x1eb7;" horiz-adv-x="1402" 
d="M880 1135v20h449v-706h106l-118 -449h-441v231l-84 -231q-47 -6 -94 -6q-106 0 -205.5 33.5t-198 117.5t-149.5 204t-51 251q0 51 12.5 138t90 204t207.5 176.5t265 59.5q119 0 211 -43zM721 758q-64 0 -109 -45t-45 -109q0 -65 45 -110t109 -45h155v155q0 64 -45 109
t-110 45zM589 -118h320l-91 -340h-323zM443 1554h301q10 -72 74 -69t67 69h302q-68 -306 -359.5 -315.5t-384.5 315.5z" />
    <glyph glyph-name="uni1EB8" unicode="&#x1eb8;" horiz-adv-x="1218" 
d="M796 1624h446l-139 -549h-457v-92h555l-96 -397h-459v-105h557l-123 -481h-925v1083h-115l131 486h598zM514 -118h319l-90 -340h-323z" />
    <glyph glyph-name="uni1EB9" unicode="&#x1eb9;" horiz-adv-x="1228" 
d="M1264 477h-691q148 -110 359 -110q133 0 278 47l-94 -387q-61 -17 -146 -28t-167 -11q-164 0 -313.5 47t-238.5 139t-127 199.5t-38 220.5q0 86 33 200.5t126 212t201.5 129t206.5 31.5q115 0 221.5 -35.5t202.5 -130t141.5 -240t45.5 -284.5zM672 848q-51 0 -91 -24.5
t-63 -82.5h297q-8 41 -50 74t-93 33zM542 -118h320l-91 -340h-323z" />
    <glyph glyph-name="uni1EBA" unicode="&#x1eba;" horiz-adv-x="1218" 
d="M796 1624h446l-139 -549h-457v-92h555l-96 -397h-459v-105h557l-123 -481h-925v1083h-115l131 486h598zM585 1666v170q24 -7 48 -7q17 0 34.5 4t39.5 21t17 47q-3 16 -16.5 31.5t-27.5 17.5t-24 2q-23 0 -43.5 -8t-52.5 -32l-129 168q57 47 121 70t128 23q14 0 28.5 -1.5
t36.5 -5.5q60 -14 110.5 -55.5t66.5 -95.5t16 -94q0 -50 -14 -94t-48 -84.5t-92.5 -62.5t-121.5 -22q-38 0 -77 8z" />
    <glyph glyph-name="uni1EBB" unicode="&#x1ebb;" horiz-adv-x="1228" 
d="M1264 477h-691q148 -110 359 -110q133 0 278 47l-94 -387q-61 -17 -146 -28t-167 -11q-164 0 -313.5 47t-238.5 139t-127 199.5t-38 220.5q0 86 33 200.5t126 212t201.5 129t206.5 31.5q115 0 221.5 -35.5t202.5 -130t141.5 -240t45.5 -284.5zM672 848q-51 0 -91 -24.5
t-63 -82.5h297q-8 41 -50 74t-93 33zM611 1270v170q24 -7 48 -7q17 0 34.5 4t39.5 21t17 47q-3 16 -16.5 31.5t-27.5 17.5t-24 2q-23 0 -43.5 -8t-52.5 -32l-129 168q57 47 121 70t128 23q14 0 28.5 -1.5t36.5 -5.5q60 -14 110.5 -55.5t66.5 -95.5t16 -94q0 -50 -14 -94
t-48 -84.5t-92.5 -62.5t-121.5 -22q-38 0 -77 8z" />
    <glyph glyph-name="uni1EBC" unicode="&#x1ebc;" horiz-adv-x="1218" 
d="M796 1624h446l-139 -549h-457v-92h555l-96 -397h-459v-105h557l-123 -481h-925v1083h-115l131 486h598zM935 2025l53 -269q-82 -57 -174 -57q-78 0 -146.5 28.5t-103.5 38t-61 9.5q-39 0 -73 -17.5t-73 -58.5l-51 258q47 45 91 63.5t96 18.5q38 0 81 -12.5t89.5 -32
t77 -28.5t57.5 -9q67 0 137 68z" />
    <glyph glyph-name="uni1EBD" unicode="&#x1ebd;" horiz-adv-x="1228" 
d="M1264 477h-691q148 -110 359 -110q133 0 278 47l-94 -387q-61 -17 -146 -28t-167 -11q-164 0 -313.5 47t-238.5 139t-127 199.5t-38 220.5q0 86 33 200.5t126 212t201.5 129t206.5 31.5q115 0 221.5 -35.5t202.5 -130t141.5 -240t45.5 -284.5zM672 848q-51 0 -91 -24.5
t-63 -82.5h297q-8 41 -50 74t-93 33zM1018 1589l53 -268q-84 -57 -176 -57q-78 0 -172 41q-35 12 -68.5 24t-70.5 12q-39 0 -73 -17t-73 -60l-49 258q49 45 93 63.5t94 18.5q39 0 81 -11.5t89 -31t77.5 -28.5t57.5 -9q37 0 67.5 14t69.5 51z" />
    <glyph glyph-name="uni1EBE" unicode="&#x1ebe;" horiz-adv-x="1218" 
d="M796 1624h446l-139 -549h-457v-92h555l-96 -397h-459v-105h557l-123 -481h-925v1083h-115l131 486h598zM1469 2238l-207 -340h-326l134 340h399zM510 1997h313l215 -334h-299l-73 123l-68 -123h-303z" />
    <glyph glyph-name="uni1EBF" unicode="&#x1ebf;" horiz-adv-x="1228" 
d="M1478 1851l-207 -340h-328l135 340h400zM1264 477h-691q148 -110 359 -110q133 0 278 47l-94 -387q-61 -17 -146 -28t-167 -11q-164 0 -313.5 47t-238.5 139t-127 199.5t-38 220.5q0 86 33 200.5t126 212t201.5 129t206.5 31.5q115 0 221.5 -35.5t202.5 -130t141.5 -240
t45.5 -284.5zM672 848q-51 0 -91 -24.5t-63 -82.5h297q-8 41 -50 74t-93 33zM532 1597h314l215 -333h-299l-74 122l-67 -122h-304z" />
    <glyph glyph-name="uni1EC0" unicode="&#x1ec0;" horiz-adv-x="1218" 
d="M796 1624h446l-139 -549h-457v-92h555l-96 -397h-459v-105h557l-123 -481h-925v1083h-115l131 486h598zM745 2239h399l133 -340h-325zM510 1997h313l215 -334h-299l-73 123l-68 -123h-303z" />
    <glyph glyph-name="uni1EC1" unicode="&#x1ec1;" horiz-adv-x="1228" 
d="M782 1823h400l133 -340h-326zM1264 477h-691q148 -110 359 -110q133 0 278 47l-94 -387q-61 -17 -146 -28t-167 -11q-164 0 -313.5 47t-238.5 139t-127 199.5t-38 220.5q0 86 33 200.5t126 212t201.5 129t206.5 31.5q115 0 221.5 -35.5t202.5 -130t141.5 -240
t45.5 -284.5zM672 848q-51 0 -91 -24.5t-63 -82.5h297q-8 41 -50 74t-93 33zM532 1597h314l215 -333h-299l-74 122l-67 -122h-304z" />
    <glyph glyph-name="uni1EC2" unicode="&#x1ec2;" horiz-adv-x="1218" 
d="M796 1624h446l-139 -549h-457v-92h555l-96 -397h-459v-105h557l-123 -481h-925v1083h-115l131 486h598zM963 1864v170q24 -7 48 -7q17 0 34.5 4t39.5 21t17 47q-3 16 -16.5 31.5t-27.5 17.5t-24 2q-23 0 -43.5 -8t-52.5 -32l-129 168q57 47 121 70t128 23q14 0 28.5 -1.5
t36.5 -5.5q60 -14 110.5 -55.5t66.5 -95.5t16 -94q0 -50 -14 -94t-48 -84.5t-92.5 -62.5t-121.5 -22q-38 0 -77 8zM510 1997h313l215 -334h-299l-73 123l-68 -123h-303z" />
    <glyph glyph-name="uni1EC3" unicode="&#x1ec3;" horiz-adv-x="1228" 
d="M1264 477h-691q148 -110 359 -110q133 0 278 47l-94 -387q-61 -17 -146 -28t-167 -11q-164 0 -313.5 47t-238.5 139t-127 199.5t-38 220.5q0 86 33 200.5t126 212t201.5 129t206.5 31.5q115 0 221.5 -35.5t202.5 -130t141.5 -240t45.5 -284.5zM672 848q-51 0 -91 -24.5
t-63 -82.5h297q-8 41 -50 74t-93 33zM951 1496v170q24 -7 48 -7q17 0 34.5 4t39.5 21t17 47q-3 16 -16.5 31.5t-27.5 17.5t-24 2q-23 0 -43.5 -8t-52.5 -32l-129 168q57 47 121 70t128 23q14 0 28.5 -1.5t36.5 -5.5q60 -14 110.5 -55.5t66.5 -95.5t16 -94q0 -50 -14 -94
t-48 -84.5t-92.5 -62.5t-121.5 -22q-38 0 -77 8zM532 1597h314l215 -333h-299l-74 122l-67 -122h-304z" />
    <glyph glyph-name="uni1EC4" unicode="&#x1ec4;" horiz-adv-x="1218" 
d="M796 1624h446l-139 -549h-457v-92h555l-96 -397h-459v-105h557l-123 -481h-925v1083h-115l131 486h598zM1039 2346l53 -269q-82 -57 -174 -57q-78 0 -146.5 28.5t-103.5 38t-61 9.5q-39 0 -73 -17.5t-73 -58.5l-51 258q47 45 91 63.5t96 18.5q38 0 81 -12.5t89.5 -32
t77 -28.5t57.5 -9q67 0 137 68zM510 1997h313l215 -334h-299l-73 123l-68 -123h-303z" />
    <glyph glyph-name="uni1EC5" unicode="&#x1ec5;" horiz-adv-x="1228" 
d="M1264 477h-691q148 -110 359 -110q133 0 278 47l-94 -387q-61 -17 -146 -28t-167 -11q-164 0 -313.5 47t-238.5 139t-127 199.5t-38 220.5q0 86 33 200.5t126 212t201.5 129t206.5 31.5q115 0 221.5 -35.5t202.5 -130t141.5 -240t45.5 -284.5zM672 848q-51 0 -91 -24.5
t-63 -82.5h297q-8 41 -50 74t-93 33zM1065 1957l53 -268q-84 -57 -176 -57q-78 0 -172 41q-35 12 -68.5 24t-70.5 12q-39 0 -73 -17t-73 -60l-49 258q49 45 93 63.5t94 18.5q39 0 81 -11.5t89 -31t77.5 -28.5t57.5 -9q37 0 67.5 14t69.5 51zM532 1597h314l215 -333h-299
l-74 122l-67 -122h-304z" />
    <glyph glyph-name="uni1EC6" unicode="&#x1ec6;" horiz-adv-x="1218" 
d="M796 1624h446l-139 -549h-457v-92h555l-96 -397h-459v-105h557l-123 -481h-925v1083h-115l131 486h598zM514 -118h319l-90 -340h-323zM510 1997h313l215 -334h-299l-73 123l-68 -123h-303z" />
    <glyph glyph-name="uni1EC7" unicode="&#x1ec7;" horiz-adv-x="1228" 
d="M1264 477h-691q148 -110 359 -110q133 0 278 47l-94 -387q-61 -17 -146 -28t-167 -11q-164 0 -313.5 47t-238.5 139t-127 199.5t-38 220.5q0 86 33 200.5t126 212t201.5 129t206.5 31.5q115 0 221.5 -35.5t202.5 -130t141.5 -240t45.5 -284.5zM672 848q-51 0 -91 -24.5
t-63 -82.5h297q-8 41 -50 74t-93 33zM542 -118h320l-91 -340h-323zM532 1597h314l215 -333h-299l-74 122l-67 -122h-304z" />
    <glyph glyph-name="uni1EC8" unicode="&#x1ec8;" horiz-adv-x="741" 
d="M171 1569h475v-1569h-491v1083h-115zM282 1666v170q24 -7 48 -7q17 0 34.5 4t39.5 21t17 47q-3 16 -16.5 31.5t-27.5 17.5t-24 2q-23 0 -43.5 -8t-52.5 -32l-129 168q57 47 121 70t128 23q14 0 28.5 -1.5t36.5 -5.5q60 -14 110.5 -55.5t66.5 -95.5t16 -94q0 -50 -14 -94
t-48 -84.5t-92.5 -62.5t-121.5 -22q-38 0 -77 8z" />
    <glyph glyph-name="uni1EC9" unicode="&#x1ec9;" horiz-adv-x="708" 
d="M169 1155h443v-706h104l-116 -449h-443v713h-94zM271 1270v170q24 -7 48 -7q17 0 34.5 4t39.5 21t17 47q-3 16 -16.5 31.5t-27.5 17.5t-24 2q-23 0 -43.5 -8t-52.5 -32l-129 168q57 47 121 70t128 23q14 0 28.5 -1.5t36.5 -5.5q60 -14 110.5 -55.5t66.5 -95.5t16 -94
q0 -50 -14 -94t-48 -84.5t-92.5 -62.5t-121.5 -22q-38 0 -77 8z" />
    <glyph glyph-name="uni1ECA" unicode="&#x1eca;" horiz-adv-x="741" 
d="M171 1569h475v-1569h-491v1083h-115zM286 -118h320l-91 -340h-323z" />
    <glyph glyph-name="uni1ECB" unicode="&#x1ecb;" horiz-adv-x="708" 
d="M237 1624h438l-100 -385h-449zM169 1155h443v-706h104l-116 -449h-443v713h-94zM249 -118h320l-91 -340h-323z" />
    <glyph glyph-name="uni1ECC" unicode="&#x1ecc;" 
d="M868 1585q334 0 569.5 -235.5t235.5 -567.5q0 -331 -235.5 -566.5t-569.5 -235.5q-332 0 -567.5 235.5t-235.5 566.5q0 332 235.5 567.5t567.5 235.5zM868 1090q-127 0 -217 -90.5t-90 -217.5t90 -217t217 -90t218 89t91 218q0 127 -90 217.5t-219 90.5zM711 -118h320
l-90 -340h-324z" />
    <glyph glyph-name="uni1ECD" unicode="&#x1ecd;" horiz-adv-x="1267" 
d="M685 1180q250 0 427 -177.5t177 -427.5q0 -249 -177 -426.5t-427 -177.5t-426 176.5t-176 427.5q0 248 176 426.5t426 178.5zM685 748q-72 0 -122 -50.5t-50 -122.5q0 -73 49 -122.5t123 -49.5t123 49.5t49 122.5q0 72 -50 122.5t-122 50.5zM541 -118h320l-91 -340h-323z
" />
    <glyph glyph-name="uni1ECE" unicode="&#x1ece;" 
d="M868 1585q334 0 569.5 -235.5t235.5 -567.5q0 -331 -235.5 -566.5t-569.5 -235.5q-332 0 -567.5 235.5t-235.5 566.5q0 332 235.5 567.5t567.5 235.5zM868 1090q-127 0 -217 -90.5t-90 -217.5t90 -217t217 -90t218 89t91 218q0 127 -90 217.5t-219 90.5zM783 1666v170
q23 -7 47 -7q18 0 35 4t39.5 21t17.5 47q-3 16 -17 31.5t-27.5 17.5t-23.5 2q-24 0 -44 -8t-53 -32l-128 168q56 47 120 70t128 23q14 0 29 -1.5t37 -5.5q60 -14 110 -55.5t66.5 -95.5t16.5 -94q0 -50 -14.5 -94t-48.5 -84.5t-92 -62.5t-121 -22q-39 0 -77 8z" />
    <glyph glyph-name="uni1ECF" unicode="&#x1ecf;" horiz-adv-x="1267" 
d="M685 1180q250 0 427 -177.5t177 -427.5q0 -249 -177 -426.5t-427 -177.5t-426 176.5t-176 427.5q0 248 176 426.5t426 178.5zM685 748q-72 0 -122 -50.5t-50 -122.5q0 -73 49 -122.5t123 -49.5t123 49.5t49 122.5q0 72 -50 122.5t-122 50.5zM573 1270v170q24 -7 48 -7
q17 0 34.5 4t39.5 21t17 47q-3 16 -16.5 31.5t-27.5 17.5t-24 2q-23 0 -43.5 -8t-52.5 -32l-129 168q57 47 121 70t128 23q14 0 28.5 -1.5t36.5 -5.5q60 -14 110.5 -55.5t66.5 -95.5t16 -94q0 -50 -14 -94t-48 -84.5t-92.5 -62.5t-121.5 -22q-38 0 -77 8z" />
    <glyph glyph-name="uni1ED0" unicode="&#x1ed0;" 
d="M868 1585q334 0 569.5 -235.5t235.5 -567.5q0 -331 -235.5 -566.5t-569.5 -235.5q-332 0 -567.5 235.5t-235.5 566.5q0 332 235.5 567.5t567.5 235.5zM1652 2260l-207 -340h-325l135 340h397zM868 1090q-127 0 -217 -90.5t-90 -217.5t90 -217t217 -90t218 89t91 218
q0 127 -90 217.5t-219 90.5zM714 1997h314l217 -334h-299l-74 123l-68 -123h-303z" />
    <glyph glyph-name="uni1ED1" unicode="&#x1ed1;" horiz-adv-x="1267" 
d="M685 1180q250 0 427 -177.5t177 -427.5q0 -249 -177 -426.5t-427 -177.5t-426 176.5t-176 427.5q0 248 176 426.5t426 178.5zM1496 1832l-207 -340h-326l133 340h400zM685 748q-72 0 -122 -50.5t-50 -122.5q0 -73 49 -122.5t123 -49.5t123 49.5t49 122.5q0 72 -50 122.5
t-122 50.5zM540 1599h311l217 -333h-299l-74 123l-67 -123h-303z" />
    <glyph glyph-name="uni1ED2" unicode="&#x1ed2;" 
d="M868 1585q334 0 569.5 -235.5t235.5 -567.5q0 -331 -235.5 -566.5t-569.5 -235.5q-332 0 -567.5 235.5t-235.5 566.5q0 332 235.5 567.5t567.5 235.5zM976 2239h400l133 -340h-326zM868 1090q-127 0 -217 -90.5t-90 -217.5t90 -217t217 -90t218 89t91 218
q0 127 -90 217.5t-219 90.5zM714 1997h314l217 -334h-299l-74 123l-68 -123h-303z" />
    <glyph glyph-name="uni1ED3" unicode="&#x1ed3;" horiz-adv-x="1267" 
d="M685 1180q250 0 427 -177.5t177 -427.5q0 -249 -177 -426.5t-427 -177.5t-426 176.5t-176 427.5q0 248 176 426.5t426 178.5zM798 1832h399l133 -340h-325zM685 748q-72 0 -122 -50.5t-50 -122.5q0 -73 49 -122.5t123 -49.5t123 49.5t49 122.5q0 72 -50 122.5t-122 50.5z
M540 1599h311l217 -333h-299l-74 123l-67 -123h-303z" />
    <glyph glyph-name="uni1ED4" unicode="&#x1ed4;" 
d="M868 1585q334 0 569.5 -235.5t235.5 -567.5q0 -331 -235.5 -566.5t-569.5 -235.5q-332 0 -567.5 235.5t-235.5 566.5q0 332 235.5 567.5t567.5 235.5zM868 1090q-127 0 -217 -90.5t-90 -217.5t90 -217t217 -90t218 89t91 218q0 127 -90 217.5t-219 90.5zM1123 1911v170
q23 -7 47 -7q18 0 35 4t39.5 21t17.5 47q-3 16 -17 31.5t-27.5 17.5t-23.5 2q-24 0 -44 -8t-53 -32l-128 168q56 47 120 70t128 23q14 0 29 -1.5t37 -5.5q60 -14 110 -55.5t66.5 -95.5t16.5 -94q0 -50 -14.5 -94t-48.5 -84.5t-92 -62.5t-121 -22q-39 0 -77 8zM714 1997h313
l217 -334h-299l-74 123l-67 -123h-303z" />
    <glyph glyph-name="uni1ED5" unicode="&#x1ed5;" horiz-adv-x="1267" 
d="M685 1180q250 0 427 -177.5t177 -427.5q0 -249 -177 -426.5t-427 -177.5t-426 176.5t-176 427.5q0 248 176 426.5t426 178.5zM685 748q-72 0 -122 -50.5t-50 -122.5q0 -73 49 -122.5t123 -49.5t123 49.5t49 122.5q0 72 -50 122.5t-122 50.5zM960 1478v170q24 -7 48 -7
q17 0 34.5 4t39.5 21t17 47q-3 16 -16.5 31.5t-27.5 17.5t-24 2q-23 0 -43.5 -8t-52.5 -32l-129 168q57 47 121 70t128 23q14 0 28.5 -1.5t36.5 -5.5q60 -14 110.5 -55.5t66.5 -95.5t16 -94q0 -50 -14 -94t-48 -84.5t-92.5 -62.5t-121.5 -22q-38 0 -77 8zM539 1599h311
l217 -333h-299l-74 123l-67 -123h-303z" />
    <glyph glyph-name="uni1ED6" unicode="&#x1ed6;" 
d="M1254 2365l54 -269q-84 -57 -174 -57q-76 0 -145.5 28.5t-104.5 38t-62 9.5q-39 0 -72.5 -17.5t-72.5 -58.5l-53 258q49 45 93 63.5t93 18.5q39 0 82 -12.5t89 -32t77 -28.5t57 -9q66 0 139 68zM868 1585q334 0 569.5 -235.5t235.5 -567.5q0 -331 -235.5 -566.5
t-569.5 -235.5q-332 0 -567.5 235.5t-235.5 566.5q0 332 235.5 567.5t567.5 235.5zM868 1090q-127 0 -217 -90.5t-90 -217.5t90 -217t217 -90t218 89t91 218q0 127 -90 217.5t-219 90.5zM714 1997h314l217 -334h-299l-74 123l-68 -123h-303z" />
    <glyph glyph-name="uni1ED7" unicode="&#x1ed7;" horiz-adv-x="1267" 
d="M685 1180q250 0 427 -177.5t177 -427.5q0 -249 -177 -426.5t-427 -177.5t-426 176.5t-176 427.5q0 248 176 426.5t426 178.5zM1070 1959l51 -268q-84 -58 -176 -58q-74 0 -165 39t-144 39q-39 0 -73 -17.5t-73 -60.5l-51 258q49 46 94 64t95 18q75 0 145 -30.5
t101.5 -39.5t58.5 -9q35 0 65.5 14t71.5 51zM685 748q-72 0 -122 -50.5t-50 -122.5q0 -73 49 -122.5t123 -49.5t123 49.5t49 122.5q0 72 -50 122.5t-122 50.5zM540 1599h311l217 -333h-299l-74 123l-67 -123h-303z" />
    <glyph glyph-name="uni1ED8" unicode="&#x1ed8;" 
d="M868 1585q334 0 569.5 -235.5t235.5 -567.5q0 -331 -235.5 -566.5t-569.5 -235.5q-332 0 -567.5 235.5t-235.5 566.5q0 332 235.5 567.5t567.5 235.5zM868 1090q-127 0 -217 -90.5t-90 -217.5t90 -217t217 -90t218 89t91 218q0 127 -90 217.5t-219 90.5zM711 -118h320
l-90 -340h-324zM714 1997h313l217 -334h-299l-74 123l-67 -123h-303z" />
    <glyph glyph-name="uni1ED9" unicode="&#x1ed9;" horiz-adv-x="1267" 
d="M685 1180q250 0 427 -177.5t177 -427.5q0 -249 -177 -426.5t-427 -177.5t-426 176.5t-176 427.5q0 248 176 426.5t426 178.5zM685 748q-72 0 -122 -50.5t-50 -122.5q0 -73 49 -122.5t123 -49.5t123 49.5t49 122.5q0 72 -50 122.5t-122 50.5zM541 -118h320l-91 -340h-323z
M539 1599h311l217 -333h-299l-74 123l-67 -123h-303z" />
    <glyph glyph-name="uni1EDA" unicode="&#x1eda;" 
d="M1218 2005l-207 -340h-325l135 340h397zM868 1090q-127 0 -217 -90.5t-90 -217.5t90 -217t217 -90t218 89t91 218q0 127 -90 217.5t-219 90.5zM1455 1331q218 -230 218 -549q0 -331 -235.5 -566.5t-569.5 -235.5q-332 0 -567.5 235.5t-235.5 566.5q0 332 235.5 567.5
t567.5 235.5q230 0 414 -112l85 267h388l-201 -409h-99z" />
    <glyph glyph-name="uni1EDB" unicode="&#x1edb;" horiz-adv-x="1267" 
d="M1052 1606l-207 -340h-326l133 340h400zM685 748q-72 0 -122 -50.5t-50 -122.5q0 -73 49 -122.5t123 -49.5t123 49.5t49 122.5q0 72 -50 122.5t-122 50.5zM1192 906q97 -146 97 -331q0 -249 -177 -426.5t-427 -177.5t-426 176.5t-176 427.5q0 248 176 426.5t426 178.5
q187 0 333 -100l75 235h388l-201 -409h-88z" />
    <glyph glyph-name="uni1EDC" unicode="&#x1edc;" 
d="M505 2003h400l133 -340h-326zM868 1090q-127 0 -217 -90.5t-90 -217.5t90 -217t217 -90t218 89t91 218q0 127 -90 217.5t-219 90.5zM1455 1331q218 -230 218 -549q0 -331 -235.5 -566.5t-569.5 -235.5q-332 0 -567.5 235.5t-235.5 566.5q0 332 235.5 567.5t567.5 235.5
q230 0 414 -112l85 267h388l-201 -409h-99z" />
    <glyph glyph-name="uni1EDD" unicode="&#x1edd;" horiz-adv-x="1267" 
d="M325 1606h399l133 -340h-325zM685 748q-72 0 -122 -50.5t-50 -122.5q0 -73 49 -122.5t123 -49.5t123 49.5t49 122.5q0 72 -50 122.5t-122 50.5zM1192 906q97 -146 97 -331q0 -249 -177 -426.5t-427 -177.5t-426 176.5t-176 427.5q0 248 176 426.5t426 178.5
q187 0 333 -100l75 235h388l-201 -409h-88z" />
    <glyph glyph-name="uni1EDE" unicode="&#x1ede;" 
d="M867 1090q-127 0 -217 -90.5t-90 -217.5t90 -217t217 -90t218.5 89t91.5 218q0 127 -90.5 217.5t-219.5 90.5zM782 1666v170q24 -7 48 -7q17 0 34.5 4t39.5 21t17 47q-3 16 -16.5 31.5t-27.5 17.5t-24 2q-23 0 -43.5 -8t-52.5 -32l-129 168q57 47 121 70t128 23
q14 0 28.5 -1.5t36.5 -5.5q60 -14 110.5 -55.5t66.5 -95.5t16 -94q0 -50 -14 -94t-48 -84.5t-92.5 -62.5t-121.5 -22q-38 0 -77 8zM1454 1331q218 -230 218 -549q0 -331 -235.5 -566.5t-569.5 -235.5q-331 0 -566.5 235.5t-235.5 566.5q0 332 235.5 567.5t566.5 235.5
q230 0 414 -112l85 267h388l-201 -409h-99z" />
    <glyph glyph-name="uni1EDF" unicode="&#x1edf;" horiz-adv-x="1267" 
d="M685 748q-72 0 -122 -50.5t-50 -122.5q0 -73 49 -122.5t123 -49.5t123 49.5t49 122.5q0 72 -50 122.5t-122 50.5zM573 1270v170q24 -7 48 -7q17 0 34.5 4t39.5 21t17 47q-3 16 -16.5 31.5t-27.5 17.5t-24 2q-23 0 -43.5 -8t-52.5 -32l-129 168q57 47 121 70t128 23
q14 0 28.5 -1.5t36.5 -5.5q60 -14 110.5 -55.5t66.5 -95.5t16 -94q0 -50 -14 -94t-48 -84.5t-92.5 -62.5t-121.5 -22q-38 0 -77 8zM1192 906q97 -146 97 -331q0 -249 -177 -426.5t-427 -177.5t-426 176.5t-176 427.5q0 248 176 426.5t426 178.5q187 0 333 -99l74 234h388
l-201 -409h-87z" />
    <glyph glyph-name="uni1EE0" unicode="&#x1ee0;" 
d="M1150 1987l54 -269q-84 -57 -174 -57q-76 0 -145.5 28.5t-104.5 38t-62 9.5q-39 0 -72.5 -17.5t-72.5 -58.5l-53 258q49 45 93 63.5t93 18.5q39 0 82 -12.5t89 -32t77 -28.5t57 -9q66 0 139 68zM868 1090q-127 0 -217 -90.5t-90 -217.5t90 -217t217 -90t218 89t91 218
q0 127 -90 217.5t-219 90.5zM1455 1331q218 -230 218 -549q0 -331 -235.5 -566.5t-569.5 -235.5q-332 0 -567.5 235.5t-235.5 566.5q0 332 235.5 567.5t567.5 235.5q230 0 414 -112l85 267h388l-201 -409h-99z" />
    <glyph glyph-name="uni1EE1" unicode="&#x1ee1;" horiz-adv-x="1267" 
d="M976 1581l51 -268q-84 -58 -176 -58q-74 0 -165 39t-144 39q-39 0 -73 -17.5t-73 -60.5l-51 258q49 46 94 64t95 18q75 0 145 -30.5t101.5 -39.5t58.5 -9q35 0 65.5 14t71.5 51zM685 748q-72 0 -122 -50.5t-50 -122.5q0 -73 49 -122.5t123 -49.5t123 49.5t49 122.5
q0 72 -50 122.5t-122 50.5zM1192 906q97 -146 97 -331q0 -249 -177 -426.5t-427 -177.5t-426 176.5t-176 427.5q0 248 176 426.5t426 178.5q187 0 333 -100l75 235h388l-201 -409h-88z" />
    <glyph glyph-name="uni1EE2" unicode="&#x1ee2;" 
d="M867 1090q-127 0 -217 -90.5t-90 -217.5t90 -217t217 -90t218.5 89t91.5 218q0 127 -90.5 217.5t-219.5 90.5zM711 -118h319l-90 -340h-323zM1454 1331q218 -230 218 -549q0 -331 -235.5 -566.5t-569.5 -235.5q-331 0 -566.5 235.5t-235.5 566.5q0 332 235.5 567.5
t566.5 235.5q230 0 414 -112l85 267h388l-201 -409h-99z" />
    <glyph glyph-name="uni1EE3" unicode="&#x1ee3;" horiz-adv-x="1267" 
d="M685 748q-72 0 -122 -50.5t-50 -122.5q0 -73 49 -122.5t123 -49.5t123 49.5t49 122.5q0 72 -50 122.5t-122 50.5zM541 -118h320l-91 -340h-323zM1192 906q97 -146 97 -331q0 -249 -177 -426.5t-427 -177.5t-426 176.5t-176 427.5q0 248 176 426.5t426 178.5
q187 0 333 -99l74 234h388l-201 -409h-87z" />
    <glyph glyph-name="uni1EE4" unicode="&#x1ee4;" horiz-adv-x="1492" 
d="M646 735q0 -26 -1 -47.5t-1 -38.5q0 -71 14.5 -117.5t51.5 -68t78 -21.5q36 0 77 19.5t54.5 81t13.5 190.5v836h489v-889q0 -209 -55 -371t-176 -232.5t-212 -91t-189 -20.5q-211 0 -367 90t-212 258t-56 367v403h-115l131 486h475v-834zM655 -118h320l-91 -340h-323z
" />
    <glyph glyph-name="uni1EE5" unicode="&#x1ee5;" horiz-adv-x="1366" 
d="M169 1155h443v-567q0 -109 20.5 -135.5t100.5 -26.5h106v729h453v-706h106l-118 -449h-441v240l-88 -240h-121q-149 0 -230 16.5t-143.5 78t-81 143t-18.5 223.5v252h-94zM542 -118h320l-91 -340h-323z" />
    <glyph glyph-name="uni1EE6" unicode="&#x1ee6;" horiz-adv-x="1492" 
d="M646 735q0 -26 -1 -47.5t-1 -38.5q0 -71 14.5 -117.5t51.5 -68t78 -21.5q36 0 77 19.5t54.5 81t13.5 190.5v836h489v-889q0 -209 -55 -371t-176 -232.5t-212 -91t-189 -20.5q-211 0 -367 90t-212 258t-56 367v403h-115l131 486h475v-834zM678 1666v170q24 -7 48 -7
q17 0 34.5 4t39.5 21t17 47q-3 16 -16.5 31.5t-27.5 17.5t-24 2q-23 0 -43.5 -8t-52.5 -32l-129 168q57 47 121 70t128 23q14 0 28.5 -1.5t36.5 -5.5q60 -14 110.5 -55.5t66.5 -95.5t16 -94q0 -50 -14 -94t-48 -84.5t-92.5 -62.5t-121.5 -22q-38 0 -77 8z" />
    <glyph glyph-name="uni1EE7" unicode="&#x1ee7;" horiz-adv-x="1366" 
d="M169 1155h443v-567q0 -109 20.5 -135.5t100.5 -26.5h106v729h453v-706h106l-118 -449h-441v240l-88 -240h-121q-149 0 -230 16.5t-143.5 78t-81 143t-18.5 223.5v252h-94zM621 1270v170q24 -7 48 -7q17 0 34.5 4t39.5 21t17 47q-3 16 -16.5 31.5t-27.5 17.5t-24 2
q-23 0 -43.5 -8t-52.5 -32l-129 168q57 47 121 70t128 23q14 0 28.5 -1.5t36.5 -5.5q60 -14 110.5 -55.5t66.5 -95.5t16 -94q0 -50 -14 -94t-48 -84.5t-92.5 -62.5t-121.5 -22q-38 0 -77 8z" />
    <glyph glyph-name="uni1EE8" unicode="&#x1ee8;" horiz-adv-x="1492" 
d="M1160 2003l-207 -340h-325l133 340h399zM1422 1331v-651q0 -209 -55 -371t-176 -232.5t-212 -91t-189 -20.5q-211 0 -367 90t-212 258t-56 367v403h-115l131 486h475v-834q0 -26 -1 -47.5t-1 -38.5q0 -71 14.5 -117.5t51.5 -68t78 -21.5q36 0 77 19.5t54.5 81t13.5 190.5
v836h324l54 171h388l-201 -409h-76z" />
    <glyph glyph-name="uni1EE9" unicode="&#x1ee9;" horiz-adv-x="1366" 
d="M1087 1606l-207 -340h-325l133 340h399zM1292 906v-457h106l-118 -449h-441v240l-88 -240h-121q-149 0 -230 16.5t-143.5 78t-81 143t-18.5 223.5v252h-94l106 442h443v-567q0 -109 20.5 -135.5t100.5 -26.5h106v729h269l51 160h388l-201 -409h-54z" />
    <glyph glyph-name="uni1EEA" unicode="&#x1eea;" horiz-adv-x="1492" 
d="M429 2005h399l134 -340h-326zM1422 1331v-651q0 -209 -55 -371t-176 -232.5t-212 -91t-189 -20.5q-211 0 -367 90t-212 258t-56 367v403h-115l131 486h475v-834q0 -26 -1 -47.5t-1 -38.5q0 -71 14.5 -117.5t51.5 -68t78 -21.5q36 0 77 19.5t54.5 81t13.5 190.5v836h324
l54 171h388l-201 -409h-76z" />
    <glyph glyph-name="uni1EEB" unicode="&#x1eeb;" horiz-adv-x="1366" 
d="M356 1606h399l133 -340h-325zM1292 906v-457h106l-118 -449h-441v240l-88 -240h-121q-149 0 -230 16.5t-143.5 78t-81 143t-18.5 223.5v252h-94l106 442h443v-567q0 -109 20.5 -135.5t100.5 -26.5h106v729h269l51 160h388l-201 -409h-54z" />
    <glyph glyph-name="uni1EEC" unicode="&#x1eec;" horiz-adv-x="1492" 
d="M678 1666v170q24 -7 48 -7q17 0 34.5 4t39.5 21t17 47q-3 16 -16.5 31.5t-27.5 17.5t-24 2q-23 0 -43.5 -8t-52.5 -32l-129 168q57 47 121 70t128 23q14 0 28.5 -1.5t36.5 -5.5q60 -14 110.5 -55.5t66.5 -95.5t16 -94q0 -50 -14 -94t-48 -84.5t-92.5 -62.5t-121.5 -22
q-38 0 -77 8zM1422 1331v-651q0 -209 -55 -371t-176 -232.5t-212 -91t-189 -20.5q-211 0 -367 90t-212 258t-56 367v403h-115l131 486h475v-834q0 -26 -1 -47.5t-1 -38.5q0 -71 14.5 -117.5t51.5 -68t77 -21.5q37 0 78 19.5t54.5 81t13.5 190.5v836h323l54 171h388
l-201 -409h-75z" />
    <glyph glyph-name="uni1EED" unicode="&#x1eed;" horiz-adv-x="1366" 
d="M621 1270v170q24 -7 48 -7q17 0 34.5 4t39.5 21t17 47q-3 16 -16.5 31.5t-27.5 17.5t-24 2q-23 0 -43.5 -8t-52.5 -32l-129 168q57 47 121 70t128 23q14 0 28.5 -1.5t36.5 -5.5q60 -14 110.5 -55.5t66.5 -95.5t16 -94q0 -50 -14 -94t-48 -84.5t-92.5 -62.5t-121.5 -22
q-38 0 -77 8zM1292 906v-457h107l-119 -449h-440v240l-88 -240h-121q-150 0 -231 16.5t-143 78t-80.5 143t-18.5 223.5v252h-95l107 442h442v-567q0 -109 20.5 -135.5t100.5 -26.5h107v729h268l51 160h388l-201 -409h-54z" />
    <glyph glyph-name="uni1EEE" unicode="&#x1eee;" horiz-adv-x="1492" 
d="M1093 1987l54 -269q-84 -57 -174 -57q-76 0 -145.5 28.5t-104.5 38t-62 9.5q-39 0 -72.5 -17.5t-72.5 -58.5l-53 258q49 45 93 63.5t93 18.5q39 0 82 -12.5t89 -32t77 -28.5t57 -9q66 0 139 68zM1422 1331v-651q0 -209 -55 -371t-176 -232.5t-212 -91t-189 -20.5
q-211 0 -367 90t-212 258t-56 367v403h-115l131 486h475v-834q0 -26 -1 -47.5t-1 -38.5q0 -71 14.5 -117.5t51.5 -68t77 -21.5q37 0 78 19.5t54.5 81t13.5 190.5v836h323l54 171h388l-201 -409h-75z" />
    <glyph glyph-name="uni1EEF" unicode="&#x1eef;" horiz-adv-x="1366" 
d="M1042 1581l51 -268q-84 -58 -176 -58q-74 0 -165 39t-144 39q-39 0 -73 -17.5t-73 -60.5l-51 258q49 46 94 64t95 18q75 0 145 -30.5t101.5 -39.5t58.5 -9q35 0 65.5 14t71.5 51zM1292 906v-457h107l-119 -449h-440v240l-88 -240h-121q-150 0 -231 16.5t-143 78
t-80.5 143t-18.5 223.5v252h-95l107 442h442v-567q0 -109 20.5 -135.5t100.5 -26.5h107v729h268l51 160h388l-201 -409h-54z" />
    <glyph glyph-name="uni1EF0" unicode="&#x1ef0;" horiz-adv-x="1492" 
d="M655 -118h319l-90 -340h-323zM1422 1331v-651q0 -209 -55 -371t-176 -232.5t-212 -91t-189 -20.5q-211 0 -367 90t-212 258t-56 367v403h-115l131 486h475v-834q0 -26 -1 -47.5t-1 -38.5q0 -71 14.5 -117.5t51.5 -68t77 -21.5q37 0 78 19.5t54.5 81t13.5 190.5v836h323
l54 171h388l-201 -409h-75z" />
    <glyph glyph-name="uni1EF1" unicode="&#x1ef1;" horiz-adv-x="1366" 
d="M542 -118h320l-91 -340h-323zM1292 906v-457h107l-119 -449h-440v240l-88 -240h-121q-150 0 -231 16.5t-143 78t-80.5 143t-18.5 223.5v252h-95l107 442h442v-567q0 -109 20.5 -135.5t100.5 -26.5h107v729h268l51 160h388l-201 -409h-54z" />
    <glyph glyph-name="Ygrave" unicode="&#x1ef2;" horiz-adv-x="1359" 
d="M40 1569h537l151 -332l152 332h536l-440 -856v-713h-494v713zM812 2003l134 -340h-326l-207 340h399z" />
    <glyph glyph-name="ygrave" unicode="&#x1ef3;" horiz-adv-x="1312" 
d="M157 713h-94l106 442h443v-479q0 -150 34.5 -175.5t168.5 -25.5v680h448v-1051q0 -114 -25.5 -203t-98 -152.5t-187.5 -93.5t-250 -30q-139 0 -276.5 24.5t-262.5 69.5l97 373q61 -39 163.5 -68.5t194.5 -29.5q82 0 124 26.5t59.5 79t17.5 170.5l-86 -178
q-191 0 -279 12.5t-164.5 63.5t-104.5 143t-28 269v133zM356 1606h399l133 -340h-325z" />
    <glyph glyph-name="uni1EF4" unicode="&#x1ef4;" horiz-adv-x="1359" 
d="M40 1569h537l151 -332l152 332h536l-440 -856v-713h-494v713zM589 -118h320l-91 -340h-323z" />
    <glyph glyph-name="uni1EF5" unicode="&#x1ef5;" horiz-adv-x="1312" 
d="M157 713h-94l106 442h443v-479q0 -150 34.5 -175.5t168.5 -25.5v680h448v-1051q0 -114 -25.5 -203t-98 -152.5t-187.5 -93.5t-250 -30q-139 0 -276.5 24.5t-262.5 69.5l97 373q61 -39 163.5 -68.5t194.5 -29.5q82 0 124 26.5t59.5 79t17.5 170.5l-86 -178
q-191 0 -279 12.5t-164.5 63.5t-104.5 143t-28 269v133zM560 -449h320l-91 -340h-323z" />
    <glyph glyph-name="uni1EF6" unicode="&#x1ef6;" horiz-adv-x="1359" 
d="M40 1569h537l151 -332l152 332h536l-440 -856v-713h-494v713zM640 1666v170q24 -7 48 -7q17 0 34.5 4t39.5 21t17 47q-3 16 -16.5 31.5t-27.5 17.5t-24 2q-23 0 -43.5 -8t-52.5 -32l-129 168q57 47 121 70t128 23q14 0 28.5 -1.5t36.5 -5.5q60 -14 110.5 -55.5
t66.5 -95.5t16 -94q0 -50 -14 -94t-48 -84.5t-92.5 -62.5t-121.5 -22q-38 0 -77 8z" />
    <glyph glyph-name="uni1EF7" unicode="&#x1ef7;" horiz-adv-x="1312" 
d="M157 713h-94l106 442h443v-479q0 -150 34.5 -175.5t168.5 -25.5v680h448v-1051q0 -114 -25.5 -203t-98 -152.5t-187.5 -93.5t-250 -30q-139 0 -276.5 24.5t-262.5 69.5l97 373q61 -39 163.5 -68.5t194.5 -29.5q82 0 124 26.5t59.5 79t17.5 170.5l-86 -178
q-191 0 -279 12.5t-164.5 63.5t-104.5 143t-28 269v133zM621 1270v170q24 -7 48 -7q17 0 34.5 4t39.5 21t17 47q-3 16 -16.5 31.5t-27.5 17.5t-24 2q-23 0 -43.5 -8t-52.5 -32l-129 168q57 47 121 70t128 23q14 0 28.5 -1.5t36.5 -5.5q60 -14 110.5 -55.5t66.5 -95.5t16 -94
q0 -50 -14 -94t-48 -84.5t-92.5 -62.5t-121.5 -22q-38 0 -77 8z" />
    <glyph glyph-name="uni1EF8" unicode="&#x1ef8;" horiz-adv-x="1359" 
d="M40 1569h537l151 -332l152 332h536l-440 -856v-713h-494v713zM1036 1987l54 -269q-84 -57 -174 -57q-76 0 -145.5 28.5t-104.5 38t-62 9.5q-39 0 -72.5 -17.5t-72.5 -58.5l-53 258q49 45 93 63.5t93 18.5q39 0 82 -12.5t89 -32t77 -28.5t57 -9q66 0 139 68z" />
    <glyph glyph-name="uni1EF9" unicode="&#x1ef9;" horiz-adv-x="1312" 
d="M157 713h-94l106 442h443v-479q0 -150 34.5 -175.5t168.5 -25.5v680h448v-1051q0 -114 -25.5 -203t-98 -152.5t-187.5 -93.5t-250 -30q-139 0 -276.5 24.5t-262.5 69.5l97 373q61 -39 163.5 -68.5t194.5 -29.5q82 0 124 26.5t59.5 79t17.5 170.5l-86 -178
q-191 0 -279 12.5t-164.5 63.5t-104.5 143t-28 269v133zM1042 1581l51 -268q-84 -58 -176 -58q-74 0 -165 39t-144 39q-39 0 -73 -17.5t-73 -60.5l-51 258q49 46 94 64t95 18q75 0 145 -30.5t101.5 -39.5t58.5 -9q35 0 65.5 14t71.5 51z" />
    <glyph glyph-name="quoteleft" unicode="&#x2018;" horiz-adv-x="645" 
d="M458 1585l-63 -172q172 -72 172 -205q0 -65 -23.5 -123.5t-86 -102.5t-136.5 -44q-57 0 -109 27q-73 32 -109 92.5t-36 132.5q0 88 41 178t105.5 135t122 63.5t122.5 18.5z" />
    <glyph glyph-name="quoteright" unicode="&#x2019;" horiz-adv-x="645" 
d="M174 946l59 166q-84 35 -126 87t-42 128q0 62 23.5 121t84 98t148.5 39q57 0 113.5 -26.5t94.5 -86t38 -126.5q0 -99 -36 -182t-132 -150q-60 -37 -113 -52.5t-112 -15.5z" />
    <glyph glyph-name="quotedblleft" unicode="&#x201c;" horiz-adv-x="1261" 
d="M1097 1585l-59 -164q168 -69 168 -215q0 -61 -23.5 -120.5t-84 -98.5t-144.5 -39q-55 0 -116.5 26.5t-97.5 86t-36 129.5q0 98 36 179t111.5 133t130 67.5t115.5 15.5zM458 1585l-59 -164q168 -69 168 -215q0 -61 -23.5 -120.5t-84 -98.5t-144.5 -39q-55 0 -115.5 26.5
t-97.5 85t-37 130.5q0 96 36 179t111.5 134t131 66.5t114.5 15.5z" />
    <glyph glyph-name="quotedblright" unicode="&#x201d;" horiz-adv-x="1261" 
d="M174 946l59 166q-84 35 -126 87t-42 128q0 62 23.5 121t84 98t148.5 39q57 0 113.5 -26.5t94.5 -86t38 -126.5q0 -99 -36 -182t-132 -150q-60 -37 -113 -52.5t-112 -15.5zM815 946l57 166q-84 37 -126 88t-42 127q0 64 24.5 122t85 97t146.5 39q57 0 115.5 -27.5
t94.5 -85t36 -126.5q0 -99 -36 -182t-113 -135t-130 -67.5t-112 -15.5z" />
    <glyph glyph-name="ellipsis" unicode="&#x2026;" horiz-adv-x="2048" 
 />
    <glyph glyph-name="ugrave" horiz-adv-x="582" 
 />
    <glyph glyph-name="uacute" horiz-adv-x="580" 
 />
    <glyph glyph-name="yacute" horiz-adv-x="629" 
 />
  </font>
</defs>
</svg>
